<?xml version="1.0" encoding="utf-8"?>
<!-- Generator: Adobe Illustrator 16.0.0, SVG Export Plug-In . SVG Version: 6.00 Build 0)  -->
<!DOCTYPE svg PUBLIC "-//W3C//DTD SVG 1.1//EN" "http://www.w3.org/Graphics/SVG/1.1/DTD/svg11.dtd">
<svg version="1.1" id="Layer_1" xmlns="http://www.w3.org/2000/svg" xmlns:xlink="http://www.w3.org/1999/xlink" x="0px" y="0px"
	 width="100px" height="100px" viewBox="0 0 100 100" enable-background="new 0 0 100 100" xml:space="preserve">
<g>
	<g>
		<defs>
			<rect id="SVGID_1_" x="0.017" y="5.025" width="99.983" height="89.949"/>
		</defs>
		<clipPath id="SVGID_2_">
			<use xlink:href="#SVGID_1_"  overflow="visible"/>
		</clipPath>
		<polygon clip-path="url(#SVGID_2_)" fill="#0072BC" points="0,94.699 0,80.148 2.124,80.148 2.124,92.752 7.177,92.752 
			7.177,94.699 0,94.699 		"/>
	</g>
	<polygon fill="#0072BC" points="10.217,94.699 8.172,94.699 8.172,83.806 10.217,83.806 10.217,94.699 	"/>
	<path fill="#0072BC" d="M17.767,93.106c1.966,0,3.716-1.691,3.716-3.854c0-2.045-1.573-3.873-3.716-3.873
		c-2.242,0-3.716,1.907-3.716,3.834C14.051,91.671,15.938,93.106,17.767,93.106 M12.065,94.699V80.148h2.045v5.171h0.039
		c0.885-1.238,2.262-1.809,3.736-1.809c2.891,0,5.643,2.379,5.643,5.741c0,3.146-2.418,5.723-5.604,5.723
		c-1.002,0-2.674-0.354-3.795-1.849H14.09v1.573H12.065L12.065,94.699z"/>
	<path fill="#0072BC" d="M36.725,94.699V83.806h1.907v0.983h0.04c0.865-1.22,2.261-1.259,2.772-1.278v2.104
		c-0.314,0-0.983,0.138-1.475,0.394c-0.649,0.354-1.2,1.18-1.2,2.733v5.958H36.725L36.725,94.699z"/>
	<path fill="#0072BC" d="M47.36,85.379c-2.517,0-3.736,2.183-3.736,3.893c0,1.967,1.553,3.835,3.716,3.835
		c2.143,0,3.795-1.75,3.795-3.835C51.136,86.952,49.464,85.379,47.36,85.379 M51.097,94.699v-1.691h-0.04
		c-0.786,1.337-2.222,1.967-3.696,1.967c-3.677,0-5.781-2.812-5.781-5.683c0-2.655,1.868-5.781,5.781-5.781
		c1.514,0,2.91,0.629,3.696,1.829h0.04v-1.534h2.045v10.894H51.097L51.097,94.699z"/>
	<polygon fill="#0072BC" points="57.035,94.699 54.99,94.699 54.99,80.148 57.035,80.148 57.035,94.699 	"/>
	<path fill="#0072BC" d="M70.721,94.699V83.806h1.907v0.983h0.039c0.865-1.22,2.262-1.259,2.772-1.278v2.104
		c-0.314,0-0.983,0.138-1.475,0.394c-0.649,0.354-1.199,1.18-1.199,2.733v5.958H70.721L70.721,94.699z"/>
	<path fill="#0072BC" d="M84.397,94.699V88.78c0-0.846,0-3.401-2.714-3.401c-1.71,0-2.87,1.199-2.87,3.382v5.938h-2.046v-11.15
		h1.908v1.417h0.039c1.102-1.455,2.753-1.455,3.186-1.455c1.69,0,3.067,0.728,3.854,1.946c0.433,0.708,0.669,1.573,0.688,2.793
		v6.449H84.397L84.397,94.699z"/>
	<path fill="#0072BC" d="M93.201,85.379c-2.517,0-3.736,2.183-3.736,3.893c0,1.967,1.554,3.835,3.717,3.835
		c2.144,0,3.795-1.75,3.795-3.835C96.977,86.952,95.305,85.379,93.201,85.379 M96.938,94.699v-1.691h-0.04
		c-0.786,1.337-2.222,1.967-3.696,1.967c-3.677,0-5.781-2.812-5.781-5.683c0-2.655,1.868-5.781,5.781-5.781
		c1.514,0,2.91,0.629,3.696,1.829h0.04v-1.534h2.045v10.894H96.938L96.938,94.699z"/>
	<path fill="#0072BC" d="M10.492,81.344c0-0.694-0.563-1.258-1.258-1.258c-0.694,0-1.257,0.563-1.257,1.258s0.563,1.258,1.257,1.258
		C9.929,82.602,10.492,82.038,10.492,81.344"/>
	<path fill="#0072BC" d="M29.916,93.078c-1.197,0-2.68-0.646-3.307-2.207c-0.283-0.702-0.318-1.399-0.308-1.879
		c0.007-0.319,0.082-0.854,0.135-1.051c0.371-1.372,1.7-2.591,3.421-2.591c1.966,0,3.421,1.592,3.52,3.185h-5.149v1.573h7.136
		c0.02-0.138,0.059-0.688,0.059-1.042c-0.02-3.186-2.596-5.584-5.545-5.584c-3.067,0-5.584,2.458-5.584,5.722
		c0,3.087,2.458,5.742,5.545,5.742c1.629,0,4.006-0.822,5.109-3.396h-2.104C32.288,92.372,31.267,93.078,29.916,93.078
		L29.916,93.078z"/>
	<path fill="#0072BC" d="M63.997,93.078c-1.196,0-2.68-0.646-3.307-2.207c-0.283-0.702-0.318-1.399-0.308-1.879
		c0.006-0.319,0.081-0.854,0.135-1.051c0.371-1.372,1.7-2.591,3.421-2.591c1.966,0,3.421,1.592,3.52,3.185h-5.149v1.573h7.136
		c0.02-0.138,0.059-0.688,0.059-1.042c-0.02-3.186-2.596-5.584-5.545-5.584c-3.067,0-5.584,2.458-5.584,5.722
		c0,3.087,2.457,5.742,5.544,5.742c1.627,0,3.999-0.82,5.105-3.385h-2.107C66.36,92.379,65.343,93.078,63.997,93.078L63.997,93.078z
		"/>
	<path fill="#0072BC" d="M62.55,76.526V15.85c0-5.978-4.846-10.824-10.823-10.824c-5.978,0-10.824,4.846-10.824,10.824v49.854
		c0,5.978,4.846,10.823,10.824,10.823H62.55L62.55,76.526z"/>
	<path fill="#0072BC" d="M64.85,76.526h24.326c5.979,0,10.824-4.846,10.824-10.823c0-5.979-4.846-10.824-10.824-10.824H75.673
		c-5.978,0-10.823,4.846-10.823,10.824V76.526L64.85,76.526z"/>
</g>
</svg>
