<?xml version="1.0" encoding="utf-8"?>
<!-- Generator: Adobe Illustrator 16.0.0, SVG Export Plug-In . SVG Version: 6.00 Build 0)  -->
<!DOCTYPE svg PUBLIC "-//W3C//DTD SVG 1.1//EN" "http://www.w3.org/Graphics/SVG/1.1/DTD/svg11.dtd">
<svg version="1.1" id="Layer_1" xmlns="http://www.w3.org/2000/svg" xmlns:xlink="http://www.w3.org/1999/xlink" x="0px" y="0px"
	 width="100px" height="100px" viewBox="0 0 100 100" enable-background="new 0 0 100 100" xml:space="preserve">
<g>
	<path fill="#FFFFFF" d="M97.73,47.79c-0.817-10.338-3.903-19.054-6.688-24.392c-1.899-3.652-3.665-6.504-5.338-8.202
		c-0.596-0.633-1.824-1.773-3.058-1.901c-1.262-0.128-2.905,0.146-6.335,1.279c-2.575,0.851-4.495,1.547-5.237,1.82
		c-0.365-0.497-1.095-1.48-1.657-2.216c-1.891-2.482-4.18-5.527-6.91-7.687c-1.912-1.509-3.636-2.69-6.147-3.696
		c-1.614-0.7-3.229-1.199-4.688-1.505c-2.675-0.562-5.03-0.832-5.64-0.895c-0.059,0.43-0.241,1.747-0.467,3.382
		c-0.292,2.09-0.667,5.166-0.686,5.333c-2.327-0.524-5.5-0.612-8.091-0.109c-4.587,0.896-8.475,2.65-11.548,4.185
		c-3.815,1.906-6.784,4.004-8.453,5.294c-3.107,2.367-5.116,4.596-6.279,6.411c-0.719,1.126-1.118,2.132-1.333,2.86
		c-0.162,0.541-0.222,0.918-0.241,1.076l5.204,4.048c-0.692-0.023-1.526,0.13-2.153,0.344c-1.753,0.6-2.258,0.893-2.95,1.293
		c-1.262,0.73-2.235,1.522-3.208,2.449c-1.581,1.633-3.738,5.174-3.732,8.246c0,0.457,0.044,0.912,0.138,1.353
		c0.587,2.789,2.178,4.89,3.461,6.941c0.833,1.329,2.594,3.68,4.145,5.692c1.465,1.897,2.864,3.493,3.002,3.669l-5.938,3.275
		l0.104,0.417l0,0c0.076,0.356,0.214,0.977,0.432,1.788c0.348,1.311,0.893,3.109,1.677,5.047
		c2.042,5.074,7.522,14.641,10.395,16.968c5.019,4.082,15.053,9.248,28.125,9.248c0.097,0,0.195,0,0.294-0.004
		c5.922-0.029,12.178-3.065,15.893-7.016c1.636-1.738,2.981-3.728,3.917-5.281c0.939-1.556,1.459-2.665,1.459-2.669l0.029-0.059
		l0.067-0.023l0.05-0.008c0.223,0.002,10.659-0.044,18.258-6.957c1.941-1.771,10.294-8.74,10.303-25.516
		C97.907,50.713,97.853,49.285,97.73,47.79"/>
	<path fill="#EE3341" d="M49.692,5.128c-1.124,5.382-1.214,16.083-2.314,21.83c7.297-3.359,11.763-6.097,19.243-8.858
		C62.021,11.924,57.61,6.298,49.692,5.128"/>
	<path fill="#EE3341" d="M35.226,76.346c-4.631-1.109-6.812-3.331-9.093-5.642c-0.596-0.602,1.924-2.77,2.859-2.294
		c3.229,1.652,6.393,3.562,7.988,3.759c20.701,2.55,26.79-5.746,28.748-10.53c-9.896-12.746-19.193-9.144-19.193-9.144
		c-0.409,3.446-1.395,6.564-1.396,10.144c0.023,0.362-10.2,1.56-10.504,1.134c-1.901-1.768-4.12-4.191-5.831-6.095
		c-5.216,4.528-10.923,7.009-16.932,10.617c1.327,5.707,7.764,17.674,11.582,19.938c21.954,13.02,44.498,10.045,44.011-20.574
		C61.455,79.446,41.593,77.857,35.226,76.346"/>
	<path fill="#EE3341" d="M82.107,18.415C80.753,17.4,55.514,28.981,47.183,31.338c-0.778,5.493-1.168,11.298-1.285,16.737
		c7.184-1.715,14.451,1.025,21.763,8.188c1.212-3.175,1.212-9.525,1.069-13.135c-0.042-1.229,2.738-1.742,2.965-1.451
		c3.233,4.113,0.918,14.771-0.612,20.096c0.512,7.813,0.6,11.923-0.964,18.944C108.65,74.656,89.965,24.314,82.107,18.415
		 M75.264,34.638c-2.872,0.774-7.091-5.162-4.797-7.749C73.503,23.465,81.583,32.946,75.264,34.638"/>
	<path fill="#EE3341" d="M27.007,53.545c-1.939-2.931-2.912-7.13-3.354-10.841c-3.38-1.805-8.552-7.407-11.923-5.187
		c-7.556,4.971-5.913,9.231-5.48,9.925c3.941,6.356,5.847,9.08,9.284,12.554C19.101,58.453,23.079,55.813,27.007,53.545"/>
	<path fill="#EE3341" d="M28.691,39.571c-4.535,6.435,7.89,20.132,7.89,20.132l4.654-0.428c-0.371-10.196,1.946-18.792-0.065-20.668
		C39.371,36.963,32.473,34.2,28.691,39.571 M34.947,50.447c-4.078-1.749-4.328-10.653-0.822-9.523
		C39.465,42.641,40.713,52.925,34.947,50.447"/>
	<path fill="#EE3341" d="M42.155,36.137c-0.178-0.314,1.816-15.959,1.912-22.922c-10.009-2.33-28.417,9.179-30.262,14.282
		c4.241,3.623,8.286,6.657,12.445,10.202C29.278,29.143,40.195,32.437,42.155,36.137"/>
</g>
</svg>
