<?xml version="1.0" encoding="utf-8"?>
<!-- Generator: Adobe Illustrator 16.0.0, SVG Export Plug-In . SVG Version: 6.00 Build 0)  -->
<!DOCTYPE svg PUBLIC "-//W3C//DTD SVG 1.1//EN" "http://www.w3.org/Graphics/SVG/1.1/DTD/svg11.dtd">
<svg version="1.1" id="Layer_1" xmlns="http://www.w3.org/2000/svg" xmlns:xlink="http://www.w3.org/1999/xlink" x="0px" y="0px"
	 width="100px" height="100px" viewBox="0 0 100 100" enable-background="new 0 0 100 100" xml:space="preserve">
<g>
	<polyline fill="#00984F" points="2.31,63.705 2.31,63.709 2.298,63.709 2.31,63.705 	"/>
	<path fill="#00984F" d="M33.342,55.858c-0.166,0.256-0.504,0.627-0.68,0.879c-2.783,3.701-6.153,7.778-10.004,9.828
		c-1.458,0.958-3.158,1.556-5.373,1.887c-4.183,0.192-8.294-0.2-9.731-4.375c-0.198-0.779-0.411-1.901-0.411-3.041
		c0-1.093,0.192-2.206,0.822-3.028l0.02-0.033l0.024-0.043c0.526-1.228,1.253-2.367,2.036-3.46c0.099-0.146,0.204-0.289,0.306-0.438
		c0.1-0.133,0.245-0.252,0.245-0.424c0-0.098-0.012-0.104,0.056-0.176c0.093-0.133,0.183-0.329,0.191-0.486
		c0.02-0.17,0.075-0.278,0.168-0.416c0.112-0.164,0.238-0.355,0.284-0.591c0.083-0.209,0.122-0.414,0.122-0.59
		c0-0.418-0.177-0.755-0.325-1.042l-0.216-0.465l-0.057-0.071c-0.455-0.441-0.703-1.101-0.949-1.731c0,0-0.099-0.252-0.126-0.31
		c-0.012-0.079-0.146-0.792-0.146-0.792c-0.114-0.566-0.215-1.107-0.215-1.657c0-0.247,0.019-0.487,0.067-0.73
		c0.608-3.169,1.536-6.324,4.213-7.956c2.433-1.84,5.758-1.696,8.702-1.431c3.415,0.634,6.851,2.708,10.463,6.34
		c0.744,0.753,1.452,1.492,2.335,2.093c0.853,0.575,1.788,1.033,2.783,1.325c0.495,0.142,0.999,0.246,1.507,0.311
		c0.439,0.059,0.957,0.157,1.375-0.071c0.086-0.04,0.133-0.124,0.212-0.167c0.078-0.036,0.181-0.036,0.255-0.075
		c0.192-0.104,0.11-0.216-0.082-0.281c-0.153-0.05-0.249-0.083-0.389-0.124c-0.114-0.027-0.224-0.086-0.332-0.131
		c-0.267-0.109-0.499-0.261-0.715-0.423c-0.464-0.346-0.853-0.761-1.25-1.165c-0.327-0.352-0.672-0.713-1.025-1.007l-0.044-0.029
		l-0.04-0.024c-0.176-0.073-0.337-0.228-0.501-0.385c-0.182-0.172-0.375-0.339-0.61-0.455c-0.021-0.016-1.705-1.384-1.705-1.384
		c-0.265-0.212-0.54-0.424-0.806-0.631c-0.124-0.104-0.231-0.205-0.347-0.316c-0.083-0.096-0.22-0.126-0.321-0.2
		c-0.087-0.058-0.15-0.107-0.219-0.184c-0.04-0.05-0.092-0.086-0.146-0.116c-0.051-0.031-0.133-0.053-0.169-0.078
		c-0.024-0.021-0.024-0.058-0.036-0.072c-0.032-0.017-0.071-0.01-0.093-0.024c-0.099-0.064-0.178-0.16-0.275-0.228
		c-0.123-0.084-0.237-0.169-0.354-0.258c-0.251-0.166-0.499-0.337-0.739-0.509c-0.519-0.348-1.026-0.708-1.55-1.049
		c-1.222-0.814-2.463-1.59-3.745-2.299c-0.311-0.135-0.573-0.301-0.861-0.476c-0.366-0.235-0.754-0.461-1.195-0.601
		c-0.209-0.239-0.452-0.278-0.609-0.296c-0.129-0.011-0.133-0.021-0.172-0.053l-0.123-0.173l-0.208,0.046
		c-0.193,0.034-0.331-0.03-0.562-0.16c-0.133-0.073-0.299-0.15-0.484-0.204c-0.196-0.18-0.407-0.185-0.55-0.15
		c-0.924-0.36-1.883-0.618-2.822-0.858l-1.167-0.307l-0.031,0.005l-0.359,0.043c-0.169,0.029-0.211,0.036-0.267,0l-0.078-0.043
		h-0.323c-1.517,0-3.247,0-4.654,0.719l-0.59,0.297c0,0,0.027,0.016,0.033,0.016c-0.394,0.181-0.731,0.389-1.034,0.667
		c-0.354,0.127-0.657,0.367-0.917,0.604l-0.361,0.308l0.099-0.047c-0.22,0.063-0.366,0.25-0.48,0.394L7.97,33.413l-0.078,0.039
		c0,0-0.076,0.137-0.084,0.155c0,0.003-0.176,0.094-0.176,0.094l-0.087,0.076c-2.35,3.06-3.583,6.673-3.583,10.494
		c0,0.226,0.007,0.471,0.019,0.699c0.148,1.657,0.714,3.197,1.788,4.865c0.268,0.381,0.551,0.762,0.873,1.104
		c0.154,0.163,0.312,0.317,0.492,0.452c0.08,0.063,0.166,0.133,0.264,0.185c0.082,0.053,0.183,0.053,0.275,0.102
		c0.05,0.106-0.157,0.192-0.206,0.282C7.408,52.09,7.36,52.294,7.22,52.384c-0.967,0.694-1.891,1.67-2.543,2.686l-0.032,0.038
		l-0.003,0.05c-0.197,0.607-0.551,1.151-0.92,1.73c-0.425,0.657-0.865,1.337-1.066,2.144C2.66,59,2.354,59.779,2.354,59.779
		c-0.214,0.474-0.42,0.975-0.504,1.544c-0.003,0.022-0.052,0.065-0.063,0.092c-0.015,0.035-0.042,0.075-0.051,0.116
		c-0.03,0.065-0.042,0.158-0.078,0.222c-0.015,0.038-0.024,0.018-0.048,0.03c-0.04,0.035-0.04,0.084-0.043,0.142
		c-0.02,0.151-0.012,0.297-0.012,0.445c0,0.187,0,0.366,0,0.553c0,0.078-0.017,0.209,0.051,0.263
		c0.044,0.043,0.044,0.067,0.028,0.112c-0.024,0.067-0.043,0.145-0.043,0.211c0,0.084,0,0.174,0.035,0.256
		c0.058,0.133,0.172,0.057,0.292,0.03c0,0.002,0.003,0.015,0.003,0.015c-0.055,0.184-0.099,0.239-0.099,0.239
		c-0.048,0.032-0.093,0.041-0.128,0.086c-0.032,0.047-0.036,0.106-0.043,0.155c-0.016,0.103-0.04,0.196-0.04,0.295
		c0,0.079,0.004,0.161,0.016,0.239c0.008,0.071,0,0.144,0.008,0.213c0,0.063,0.028,0.112,0.032,0.17
		c0.019,0.149,0.024,0.295,0.04,0.45c0.002,0.112,0.014,0.228,0.023,0.34c0,0.017,0.016,0.124,0.007,0.141
		c0.059-0.06,0.11-0.125,0.157-0.186c0.035-0.031,0.071-0.103,0.121-0.11c0.115-0.007,0.123,0.247,0.138,0.323l0.012-0.009
		c-0.024,0.093-0.034,0.19-0.034,0.28c0,0.192,0.034,0.371,0.086,0.457l0.177,0.299l0.294-0.181
		c0.023-0.017,0.036-0.041,0.056-0.058c0,0,0.058,0,0.125,0.003c0,0.077,0.004,0.192,0.004,0.192l0.033,0.542l0.022,0.03
		l0.154,0.489c0.052,0.205,0.125,0.413,0.216,0.6c0,0.026,0,0.056,0,0.084c0,0.438,0.205,0.829,0.582,1.113
		c0,0,0.162,0.118,0.319,0.239C4.255,70.37,4.42,70.72,4.42,70.72s0.067-0.155,0.146-0.312c0.027,0.053,0.043,0.104,0.076,0.161
		l0.204,0.452l0.138,0.015c0.018,0.004,0.042,0.026,0.101,0.135l0.351,0.448L5.49,71.59c0.122,0.034,0.303,0.192,0.483,0.342
		c0.244,0.215,0.535,0.473,0.892,0.562c1.695,0.626,3.57,1.236,5.57,1.367c4.029,0.325,8.077-0.99,12.035-3.906
		c3.373-2.487,6.604-6.097,9.619-10.72c0-0.004,0.775-1.19,1.266-1.942l0.433-0.518c0.076-0.092,0.209-0.163,0.259-0.271
		c0.079-0.14,0.167-0.271,0.256-0.392c0.204-0.28,0.408-0.548,0.614-0.828c0,0,1.269-1.76,1.284-1.778
		c0.193-0.174,0.327-0.385,0.46-0.594c0.125-0.2,0.24-0.391,0.384-0.51l0.044-0.028l0.028-0.041
		c0.274-0.379,0.503-0.814,0.731-1.234c0.274-0.503,0.541-1.003,0.896-1.448c0.168-0.221,0.36-0.432,0.58-0.6
		c0.096-0.069,0.189-0.159,0.283-0.213c0.138-0.084,0.217-0.137,0.342-0.226c0.183-0.108,0.224-0.245,0.012-0.29
		c-0.079-0.023-0.177,0-0.259-0.008c-0.091-0.022-0.165-0.091-0.255-0.111c-0.46-0.108-0.923,0.119-1.353,0.298
		c-0.475,0.192-0.923,0.422-1.368,0.688c-0.88,0.538-1.666,1.225-2.341,2.008c-0.693,0.814-1.176,1.707-1.703,2.628
		C34.293,54.496,33.743,55.257,33.342,55.858"/>
	<path fill="#00984F" d="M44.867,4.804c-0.021,0-0.044,0-0.063,0.011C44.654,4.858,44.591,5,44.489,5.096
		c-0.127,0.116-0.259,0.216-0.386,0.336c-0.228,0.24-0.408,0.502-0.608,0.758c0,0-0.366,0.458-0.425,0.532
		c-0.653,0.408-1.514,0.402-1.987,0.157l-0.026-0.023l-0.036-0.008c-0.07-0.023-0.142-0.095-0.228-0.184
		c-0.11-0.125-0.228-0.193-0.35-0.277c-0.098-0.064-0.137-0.107-0.149-0.236c0-0.059,0.105-0.609,0.146-0.602
		c-0.086-0.025-0.114-0.054-0.208-0.24L40.04,4.947l-0.134-0.012c-0.259-0.071-0.55-0.22-0.834-0.371c0,0-0.156-0.084-0.268-0.136
		c-0.172-0.337-0.569-0.374-0.773-0.375c-0.109-0.006-0.235-0.029-0.349-0.042c-0.11-0.011-0.401,0.011-0.476-0.08
		c-0.074-0.064,0-0.1-0.035-0.16c-0.09-0.155-0.267,0.024-0.37,0.057c-0.133,0.032-0.275,0.023-0.405,0.046
		c-0.208,0.03-0.519,0.102-0.523,0.37c-0.349,0.135-0.44-0.198-0.751-0.288c-0.165-0.049-0.314-0.077-0.479-0.09
		c-0.14-0.007-0.27,0.041-0.412,0.032c-0.148-0.019-0.28-0.108-0.417-0.132c-0.169-0.026-0.299,0.053-0.45,0.108
		C32.981,4,32.627,4.191,32.28,4.384c-0.412,0.231-0.801,0.448-1.21,0.508l-0.063,0.007l-0.051,0.036
		c-1.22,0.701-2.3,1.365-3.298,2.365c-2.449,2.428-3.932,5.376-4.524,9.023c-0.176,0.847-0.263,1.687-0.263,2.513
		c0,2.526,1.09,6.479,1.887,7.71c1.451,2.239,5.25,6.847,9.044,9.414c0.952,0.666,1.867,1.475,2.841,2.329
		c1.274,1.115,2.576,2.274,4.03,3.111l0.054,0.03l0.099,0.018c0.173,0.038,0.712,0.129,0.932-0.364
		c0.377-0.739-0.311-1.307-0.771-1.754c-0.613-0.597-1.182-1.236-1.749-1.879c-0.294-0.345-0.602-0.693-0.908-1.045
		c-0.743-0.864-1.518-1.754-2.334-2.597c-0.218-0.282-0.472-0.49-0.708-0.761c-0.118-0.146-0.299-0.235-0.453-0.356
		c-0.286-0.228-0.62-0.45-0.816-0.718c-0.24-0.326-0.504-0.397-0.792-0.669c-0.36-0.367-0.542-0.871-0.904-1.252
		c-0.423-0.435-0.816-0.898-1.202-1.365c-0.68-0.841-1.314-1.722-1.891-2.639c-0.85-1.348-1.092-4.804-1.092-6.58
		c0-1.52,0.302-3.029,1.167-4.439c1.611-2.568,4.202-4.039,7.688-4.382c0.265,0.001,0.508-0.082,0.72-0.152
		c0.346-0.126,0.468-0.148,0.569-0.062l0.099,0.094l0.146-0.006c0.49-0.04,0.931,0.123,1.392,0.287
		c0.361,0.135,0.755,0.267,1.186,0.317c1.643,0.605,3.231-0.662,4.509-1.688c0,0,0.327-0.263,0.375-0.299
		c0.091-0.049,0.865-0.404,0.865-0.404c0.45-0.225,0.863-0.432,1.31-0.55l0.036-0.007l0.036-0.016
		c2.247-1.117,5.772-2.091,8.293-1.117l0.022,0.001l0.018,0.004c2.566,0.665,4.255,2.781,5.32,6.665
		c0.165,0.63,0.201,1.261,0.233,1.888c0.183,4.058-4.923,10.726-5.977,11.819c0,0-1.469,1.554-1.508,1.59
		c-1.47,1.272-2.904,2.566-4.27,3.953c-1.34,1.368-2.605,2.832-3.647,4.443c-0.496,0.764-0.935,1.561-1.305,2.396
		c-0.183,0.407-0.342,0.815-0.482,1.235c-0.067,0.207-0.115,0.43-0.193,0.637c-0.054,0.155-0.185,0.323-0.145,0.503
		c0.015,0.071,0.058,0.092,0.109,0.135c0.062,0.08,0.048,0.098,0.067,0.194c0.074,0.514,0.546-0.152,0.659-0.306
		c0.358-0.503,0.742-0.943,1.195-1.383c0.401-0.392,0.81-0.79,1.149-1.258c0.132-0.184,0.272-0.364,0.364-0.576
		c0.083-0.205,0.13-0.37,0.263-0.562c0.387-0.584,0.917-1.016,1.424-1.496c0.663-0.635,1.347-1.29,1.895-2.012
		c2.581-2.238,4.889-4.907,7.108-7.487l2.161-2.478l0.687-0.971c0.597-0.806,5.172-6.374,5.51-10.69
		c0.042-0.568,0.195-1.079,0.195-1.587c0-1.238-0.349-2.376-0.689-3.487l-0.379-1.294L66.29,6.86
		c-0.267-0.388-0.443-0.816-0.641-1.272c-0.231-0.573-0.492-1.156-0.911-1.66c-0.268-0.691-0.879-1.133-1.449-1.516
		c-0.351-0.244-0.678-0.477-0.895-0.743l-0.033-0.045l-0.057-0.035c-1.604-0.944-3.462-1.454-5.84-1.583
		c-0.574-0.014-1.125,0-1.694,0.048c-1.864,0.162-3.678,0.676-5.36,1.495c-0.839,0.412-1.647,0.904-2.396,1.46
		c-0.385,0.285-0.75,0.576-1.1,0.895c-0.185,0.156-0.361,0.318-0.53,0.486c-0.075,0.079-0.173,0.146-0.248,0.218
		c-0.063,0.054-0.106,0.155-0.181,0.188C44.929,4.815,44.894,4.811,44.867,4.804"/>
	<path fill="#00984F" d="M43.056,14.713c-0.013,0.155-0.013,0.31-0.016,0.464v0.096l0.031-0.043l-0.051,0.077l-0.076,0.169
		c-0.002,1.164-0.196,2.43-0.396,3.588L42.532,19.1l0.016,0.03c0,0.126,0.003,0.255,0.003,0.377c0,0.804-0.114,1.61-0.236,2.387
		c-0.104,0.794-0.223,1.612-0.223,2.449c0,0.232,0.008,0.46,0.031,0.689c-0.094,0.658-0.129,1.301-0.129,1.944
		c0,1.734,0.263,2.472,0.534,4.1l0.308,1.635c0-0.019,0.042,0.708,0.042,0.708c0.02,0.417,0.066,0.825,0.134,1.239
		c0.032,0.224,0.024,0.619,0.26,0.763c0.144,0.093,0.168-0.048,0.215-0.144c0.114-0.235,0.429-0.33,0.571-0.562
		c0.141-0.22,0.173-0.482,0.2-0.735c0.016-0.197,0.04-0.382,0.114-0.504l0.02-0.017l0.003-0.023
		c0.276-0.625,0.354-1.296,0.433-1.957c0.071-0.551,0.138-1.066,0.304-1.551c0.385-0.999,0.503-2.066,0.503-3.133
		c0-0.893-0.083-1.781-0.159-2.622c-0.015-0.187-0.03-0.371-0.113-0.542c-0.149-0.313-0.2-0.644-0.263-0.974
		c-0.126-0.551-0.252-1.081-0.252-1.674c0-0.104,0.005-0.208,0.021-0.316l0.004-0.163l-0.13-0.103
		c-0.024-0.164-0.036-0.322-0.036-0.51c0-0.088,0-0.183,0.005-0.27c0-0.101,0-0.194,0-0.289c0-0.384-0.023-0.772-0.193-1.112
		l-0.015-0.06l-0.063-0.043c-0.067-0.06-0.087-0.145-0.087-0.264c0-0.148,0.055-0.353,0.119-0.589
		c0.035-0.123,0.082-0.249,0.082-0.372c-0.259-0.008-0.069-0.38-0.113-0.531c-0.032-0.11-0.11-0.167-0.193-0.258
		c-0.145-0.149-0.065-0.27,0.012-0.421c-0.331-0.403-0.502-0.846-0.597-1.334c-0.071-0.429,0-0.982-0.346-1.318
		c-0.228-0.224-0.107,0.185-0.087,0.296c0.044,0.196-0.023,0.444-0.056,0.628C43.125,14.208,43.071,14.461,43.056,14.713"/>
	<path fill="#00984F" d="M74.868,19.238c-4.316,1.083-8.227,2.893-10.701,5.798c-2.199,2.583-4.372,5.185-6.551,7.781
		c-1.101,1.323-2.232,2.585-3.333,3.896c-0.598,0.724-1.212,1.439-1.816,2.156c-1.134,1.339-2.343,2.599-3.575,3.854
		c-0.166,0.178-1.113,0.693-0.972,0.982c0.204,0.415,1.491-0.393,1.707-0.497c1.936-0.939,3.847-1.891,5.531-3.247
		c0.675-0.543,1.371-1.059,2.008-1.651c0.651-0.609,1.182-1.33,1.779-1.996c1.375-1.572,2.807-3.099,4.247-4.606
		c0.003,0,1.594-1.62,1.594-1.62s0.894-0.892,0.944-0.939c1.147-0.853,2.347-1.656,3.671-2.45c2.747-1.312,5.146-1.995,7.519-2.144
		c0.67,0.085,1.364,0.093,2.048,0.101c0.811,0.015,1.645,0.023,2.421,0.156l0.044,0.014l0.04-0.006
		c1.308-0.108,2.405,0.425,3.554,0.993l0.737,0.36c2.638,1.483,4.136,4.116,4.136,7.051c0,0.741-0.089,1.497-0.299,2.26
		c-0.385,1.499-1.068,2.933-1.814,4.276c-0.587,1.056-2.396,2.549-1.255,3.642c0.668,0.64,2.994,1.635,3.581,5.301
		c0.673,4.28-0.296,7.502-1.869,9.965c-1.115,1.564-2.632,2.721-4.114,3.833l-1.233,0.958c-2.206,1.793-6.076,1.457-8.128,0.491
		c-2.063-0.955-8.806-4.644-12.748-8.728l-0.955-0.923c-0.833-0.812-1.579-1.728-2.409-2.552c-0.826-0.833-1.689-1.632-2.613-2.351
		c-1.76-1.377-3.794-2.464-6.042-2.72c-0.512-0.055-1.023-0.067-1.541-0.033c-0.268,0.009-0.538,0.039-0.814,0.072
		c-0.259,0.037-0.58,0.03-0.832,0.141c-0.299,0.124-0.099,0.263,0.141,0.291c0.215,0.029,0.331,0.096,0.508,0.252
		c0.428,0.395,0.981,0.652,1.465,0.974c0.562,0.374,1.097,0.785,1.603,1.216c1.042,0.886,1.994,1.864,2.925,2.869
		c0.098,0.106,0.209,0.211,0.308,0.325c1.438,1.698,3.265,3.528,5.571,5.58c0.606,0.489,8.743,6.887,10.707,8.139l2.847,1.83
		c0.035,0.008,1.348,0.768,1.348,0.768c1.192,0.703,2.427,1.432,3.821,1.747c-0.012-0.008,0.927,0.256,0.927,0.256
		c1.156,0.319,2.349,0.645,3.668,0.655c2.417,0.29,5.015-0.618,7.271-2.574c3.608-2.335,6.288-5.45,7.358-8.566
		c0.834-1.666,1.166-3.524,1.166-5.338c0-2.269-0.505-4.485-1.197-6.225c-0.472-1.434-1.493-2.614-2.485-3.754
		c-0.537-0.619-1.123-1.265-1.104-2.161c0.013-0.955,0.347-1.951,0.94-2.706c0.008-0.003,0.121-0.174,0.121-0.174
		c0.193-0.251,0.396-0.534,0.618-0.598l0.132-0.032c0,0,0.072-0.129,0.072-0.13l0.11-0.078c0.103-0.065,0.314-0.217,0.354-0.468
		c0.047,0,0.091,0,0.091,0l0.146-0.104l0.011-0.022c0.148-0.134,0.192-0.26,0.192-0.37c0-0.063-0.011-0.116-0.027-0.161
		c0,0-0.037-0.082-0.066-0.145c0.083-0.141,0.156-0.283,0.169-0.465c0,0,0.047-0.392,0.059-0.448
		c0.056-0.096,0.119-0.188,0.165-0.275c-0.531,0.243-0.31-0.393-0.185-0.667c0.102-0.223,0.226-0.438,0.401-0.607
		c0.172-0.151,0.44-0.167,0.566-0.359c0.035-0.055,0.038-0.111,0.038-0.165c0.024,0,0.063,0,0.07,0c0.044,0,0.032-0.392,0.025-0.427
		c-0.032-0.159-0.122-0.24-0.088-0.417c0.062-0.324,0.367-0.595,0.448-0.929c-0.081,0.042-0.181,0.223-0.286,0.096
		c-0.056-0.066,0.046-0.29,0.074-0.355c-0.225,0.253-0.152-0.129-0.109-0.234c0.081-0.215,0.174-0.448,0.346-0.622
		c-0.009-0.167-0.024-0.332-0.027-0.503c0.022-0.05,0.03-0.101,0.03-0.164s-0.003-0.126-0.036-0.195l-0.037-0.076l-0.1-0.076
		c-0.026-0.03-0.085-0.068-0.151-0.097c-0.024-0.214-0.057-0.406-0.067-0.52c0.134-0.211,0.199-0.424,0.199-0.638
		c0-0.316-0.096-0.627-0.188-0.892c-0.067-0.228-0.141-0.461-0.203-0.69c-0.173,0.094-0.279,0.361-0.376-0.018
		c-0.104-0.478,0.146-1.147-0.45-1.421c-0.062-0.438-0.338-0.858-0.653-1.151c-0.09-0.494-0.407-0.828-0.691-1.114
		c-0.256-0.256-0.476-0.47-0.521-0.776l-0.042-0.213l-0.203-0.056c-0.283-0.076-0.442-0.283-0.638-0.542
		c-0.157-0.217-0.345-0.456-0.628-0.64l-0.076-0.049c-0.112-0.21-0.264-0.32-0.455-0.336c-1.473-1.498-3.711-2.411-5.371-3.08
		l-0.018-0.014h-0.025C83.476,18.106,79.045,18.184,74.868,19.238"/>
	<path fill="#00984F" d="M97.662,33.724l0.007,0.001l-0.034,0.059C97.658,33.766,97.643,33.737,97.662,33.724"/>
	<path fill="#00984F" d="M25.194,46.761c-0.632,0.054-1.188,0.37-1.713,0.683c-0.617,0.357-1.188,0.696-1.817,0.559l-0.125-0.028
		l-0.11,0.076c-0.173,0.124-0.393,0.165-0.628,0.208c-0.24,0.039-0.499,0.105-0.747,0.243c-0.333-0.09-0.637-0.028-0.9,0.036
		L18.7,48.636l-0.868,0.138c-0.771,0.126-1.53,0.277-2.269,0.496c-0.64,0.192-1.395,0.297-1.981,0.609
		c-0.067,0.491,0.869,0.224,1.118,0.224c0.616,0.011,1.186,0.267,1.823,0.243c0.669-0.032,1.333-0.146,1.993-0.208
		c0.727-0.067,1.415-0.131,2.055-0.036h0.053l0.042-0.005c1.085-0.198,2.083-0.125,3.132-0.043c0.917,0.071,1.864,0.14,2.871,0.017
		c1.752,0.211,3.306-0.354,4.81-0.912c0.495-0.181,0.999-0.37,1.502-0.525c0.188-0.06,0.408-0.06,0.562-0.198
		c0.062-0.052,0.083-0.114,0.161-0.15c0.052-0.035,0.129-0.022,0.193-0.058c0.071-0.03,0.186-0.173,0.24-0.228
		c0.099-0.103,0.143-0.199,0.099-0.349c-0.024-0.149-0.114-0.263-0.248-0.309c-0.644-0.224-1.379-0.231-2.048-0.343
		c-0.73-0.118-1.47-0.249-2.204-0.239c-0.701,0-1.199,0.214-1.876,0.268C26.965,47.098,26.089,46.667,25.194,46.761"/>
	<path fill="#00984F" d="M80.839,41.721l-0.676,0.033h-0.031l-3.295,0.099c-1.579,0.058-3.062,0.111-4.622,0.104
		c-1.423-0.448-3.03-0.236-4.592-0.034c-0.495,0.066-0.99,0.134-1.488,0.177c-0.245,0.024-0.492,0.038-0.754,0.053
		c-0.199,0.003-0.374,0.082-0.571,0.111c-0.117,0.013-0.225-0.076-0.339-0.078c-0.093-0.002-0.236,0.068-0.338,0.089
		c-0.267,0.057-0.53,0.093-0.806,0.136c-0.692,0.092-1.396,0.202-2.02,0.609c-0.468,0.101-0.916,0.25-1.337,0.395
		c-0.676,0.232-1.316,0.452-2.02,0.467h-0.032l-0.024,0.008c-0.29,0.071-0.455,0.316-0.701,0.473
		c-0.226,0.148-0.748,0.187-0.765,0.336c-0.016,0.142,0.728,0.2,0.994,0.308c0.405,0.17,0.825,0.351,1.26,0.382l0.062,0.001
		l0.056-0.025c0.652-0.294,1.142-0.079,1.718,0.162c0.361,0.154,0.723,0.292,1.104,0.328c0.184,0.019,0.437,0.054,0.604-0.04
		c0.168-0.108,0.221-0.21,0.441-0.139c0.986,0.331,2.145,0.167,3.155,0.116c1.202-0.054,2.394-0.169,3.589-0.306
		c0.995-0.114,1.991-0.246,2.987-0.384l0.066-0.007l0.039-0.031c0.232-0.149,0.513-0.213,0.814-0.274
		c0.354-0.073,0.793-0.13,1.038-0.487c0.052-0.065,0-0.12,0.103-0.184c0.142-0.084,0.297-0.007,0.443,0.004
		c0.181,0.018,0.378-0.029,0.554-0.036c0.354-0.005,0.725,0.024,1.079,0.061l0.021,0.001l0.024-0.001
		c0.385-0.037,0.695-0.245,0.982-0.426c0.266-0.178,0.504-0.322,0.777-0.335c0.677,0.246,1.321,0.125,1.97,0.001
		c0.429-0.086,0.856-0.066,1.298-0.123c0.21-0.034,0.6-0.137,0.805-0.304c0.113-0.102,0.126-0.225,0.283-0.29
		c0.307-0.135,0.729,0.218,0.951-0.258c0.209-0.45-0.581-0.449-0.833-0.521C82.168,41.686,81.521,41.648,80.839,41.721"/>
	<path fill="#00984F" d="M54.283,61.561c-0.353-0.313-1.593-1.169-1.977-1.457c-1.073-0.786-1.579-1.251-2.371-2.092
		c-0.484-0.504-0.828-0.867-1.226-1.427c-0.185-0.256-0.414-0.534-0.511-0.824c-0.036-0.127-0.021-0.187-0.106-0.305
		c-0.06-0.07-0.133-0.127-0.176-0.211c-0.049-0.103,0.022-0.172-0.037-0.295c-0.062-0.125-0.223-0.164-0.295-0.286
		c-0.038-0.063-0.049-0.158-0.077-0.222c-0.047-0.174-0.104-0.344-0.154-0.512c-0.205-0.568-0.278-0.945-0.298-1.68
		c0-0.139,0.141-1.228,0.44-0.977c0.077,0.046,0.066,0.246,0.094,0.322c0.109,0.264,0.437,0.518,0.622,0.729
		c0.441,0.516,0.95,0.796,1.521,1.149c-0.024-0.021-0.048-0.03-0.066-0.041c0.474,0.272,0.93,0.694,1.376,1.02
		c0.561,0.419,0.95,0.761,1.362,1.291c0.485,0.641,1.294,0.788,1.886,1.293c0.627,0.522,1.228,1.059,1.854,1.572
		c3.545,2.881,7.858,7.403,10.153,10.917c1.987,3.052,3.162,6.144,3.842,8.964c0.905,3.732,0.769,7.183-0.396,10.222
		c-1.643,5.979-6.937,10.728-12.303,11.024l-0.017,0.008l-0.023-0.008c-2.948-0.224-5.77-0.571-7.974-2.382l-0.05-0.033
		l-0.034-0.056c-0.299-0.589-0.884-1.129-1.367-1.571c-0.448-0.409-1.207-0.929-1.823-0.964c-0.405-0.028-0.833,0.047-1.208,0.207
		c-0.412,0.188-0.393,0.288-0.533,0.695c-0.076,0.221-0.192,0.289-0.421,0.377c-0.192,0.079-0.4,0.081-0.613,0.139
		c-0.321,0.099-0.61,0.327-0.897,0.504c-0.357,0.225-0.699,0.48-1.067,0.702c-0.7,0.439-1.428,0.834-2.193,1.147
		c-1.502,0.622-3.138,0.87-4.741,0.569c-0.044-0.003-0.071-0.007-0.105-0.019c-2.198-0.267-3.763-0.816-5.041-1.774
		c-2.145-1.386-3.969-4.042-5.01-7.265l-0.023-0.078l0.008-0.073c0-0.022,0-0.056,0-0.078c0.006-0.213-0.076-0.399-0.174-0.605
		c0,0-0.154-0.37-0.162-0.394c-0.262-1.037-0.388-2.16-0.364-3.311c0.024-2.232,0.554-4.554,1.536-6.456l0.743-1.474
		c0.46-0.925,0.932-1.891,1.455-2.77c1.348-2.271,2.763-4.434,4.037-6.726l0.459-0.829l0.009-0.028
		c0.219-0.261,0.374-0.563,0.547-0.87c0.109-0.215,0.224-0.424,0.354-0.624c0.105-0.179,0.27-0.258,0.38-0.405
		c0.063-0.086,0.05-0.151,0.089-0.229c0.044-0.073,0.103-0.127,0.146-0.198c0.059-0.101,0.042-0.168,0.085-0.276
		c0.083-0.183,0.178-0.312,0.24-0.499c0.107-0.325,0.283-0.6,0.527-0.837c0.2-0.205,0.251-0.351,0.361-0.603
		c0.288-0.636,0.853-1.2,1.254-1.762c0.834-1.156,1.687-2.304,2.59-3.409c0.503-0.751,1.067-1.451,1.671-2.188
		c0.369-0.46,0.727-1.023,1.133-1.427c-0.013,0.013-0.037,0.035-0.057,0.056c0.492-0.51,0.943-0.939,1.258-1.588
		c0.13-0.274,0.403-0.618,0.444-0.919c0.021-0.086-0.041-0.291,0-0.36c0.252-0.331,0.692,0.743,0.725,0.887
		c0.18,0.771,0.208,1.177,0.149,1.816c-0.013,0.181-0.021,0.377-0.024,0.569c-0.016,0.067,0.004,0.18-0.02,0.254
		c-0.039,0.137-0.196,0.225-0.231,0.366c-0.024,0.144,0.076,0.202,0.046,0.311c-0.011,0.103-0.082,0.175-0.122,0.272
		c-0.062,0.149-0.022,0.201-0.035,0.338c-0.021,0.325-0.182,0.68-0.292,0.99c-0.262,0.688-0.534,1.158-0.888,1.797
		c-0.581,1.082-0.982,1.702-1.879,2.806c-2.114,2.595-4.057,5.096-5.926,7.864c-1.958,2.875-3.677,5.897-5.185,9.017
		c-1.337,2.531-0.803,6.076,0.384,8.116c1.75,2.928,3.617,4.61,5.554,4.995l0.688,0.108c2.009,0.323,3.79,0.366,5.448-0.934
		l0.046-0.032l0.054-0.024c0.536-0.181,1.043-0.432,1.581-0.698c0.842-0.417,1.761-0.849,2.646-1.149
		c0.989-0.322,0.875-0.082,1.638,0.536c1.064,0.863,2.896,0.91,4.167,1.356c2.091,0.718,4.075,1.408,6.256,0.68
		c3.806-1.059,6.003-5.484,6.727-8.945c0.152-0.71,0.24-1.479,0.24-2.311c0-1.162-0.151-2.447-0.468-3.874
		c-1.303-4.211-2.726-7.571-5.434-10.323l-0.013-0.019l-0.019-0.017c-0.916-1.257-2.013-2.23-3.168-3.269
		C55.387,62.418,54.422,61.687,54.283,61.561"/>
	<path fill="#00984F" d="M45.074,61.458c-0.093,0.646-0.055,1.3-0.53,1.903l-0.043,0.059l-0.09,0.686
		c-0.245,2.024-0.503,4.118-0.48,6.162c0,0.094,0.004,0.187,0.004,0.271c0.035,1.136,0.278,2.186,0.526,3.209
		c0.149,0.654,0.311,1.321,0.409,1.992l0.012,0.054l0.027,0.043c0.361,0.557,0.463,1.236,0.492,1.948
		c0.004,0.299-0.017,0.6-0.017,0.896c0,0.229-0.094,0.499-0.039,0.723c0.027,0.157,0.188,0.296,0.252,0.452
		c0.136,0.327-0.052,0.65-0.039,0.976c0.015,0.174,0.164,0.239,0.203,0.37c0.036,0.129-0.078,0.302-0.102,0.442
		c-0.035,0.188-0.03,0.393-0.03,0.587c0.026,0.657,0.305,1.264,0.705,1.847c0.198,0.292,0.45,0.575,0.633,0.874
		c0.184,0.305,0.099,0.65,0.26,0.953c0.172,0.317,0.267-0.162,0.299-0.272c0.073-0.337-0.028-0.638-0.04-0.972
		c-0.03-0.434,0.133-0.855,0.119-1.291c-0.006-0.306-0.044-0.602-0.074-0.891c-0.036-0.291-0.071-0.587-0.075-0.888
		c-0.008-0.125,0-0.256,0.004-0.387c0.139-0.373,0.274-0.79,0.259-1.225c0-0.131-0.026-0.266-0.071-0.407
		c0.151-0.288,0.193-0.572,0.188-0.849c-0.006-0.112-0.019-0.224-0.028-0.332c-0.003-0.1-0.009-0.208-0.009-0.309
		c-0.013-0.215,0.006-0.424,0.105-0.622l0.016-0.045l0.106-2.654c0.07-1.402,0.137-2.849,0.097-4.302c0-0.006,0-0.053,0-0.053
		c-0.126-0.889-0.216-1.785-0.318-2.677c-0.086-0.698-0.609-1.302-0.742-1.976c-0.036-0.184-0.229-0.27-0.295-0.434
		c-0.068-0.192,0.109-0.342,0.144-0.516c0.024-0.204-0.045-0.439-0.097-0.643c-0.075-0.385-0.185-0.761-0.302-1.134
		c-0.11-0.372-0.129-0.779-0.292-1.132c-0.167-0.366-0.392-1.267-0.894-1.478c-0.17,0.197-0.13,0.483-0.188,0.713
		C45.11,61.237,45.099,61.344,45.074,61.458"/>
</g>
</svg>
