<?xml version="1.0" encoding="utf-8"?>
<!-- Generator: Adobe Illustrator 16.0.0, SVG Export Plug-In . SVG Version: 6.00 Build 0)  -->
<!DOCTYPE svg PUBLIC "-//W3C//DTD SVG 1.1//EN" "http://www.w3.org/Graphics/SVG/1.1/DTD/svg11.dtd">
<svg version="1.1" id="Layer_1" xmlns="http://www.w3.org/2000/svg" xmlns:xlink="http://www.w3.org/1999/xlink" x="0px" y="0px"
	 width="100px" height="100px" viewBox="0 0 100 100" enable-background="new 0 0 100 100" xml:space="preserve">
<g>
	<g>
		<defs>
			<rect id="SVGID_1_" x="0" width="541.339" height="100"/>
		</defs>
		<clipPath id="SVGID_2_">
			<use xlink:href="#SVGID_1_"  overflow="visible"/>
		</clipPath>
		<path clip-path="url(#SVGID_2_)" fill="#005BAA" d="M56.381,0.73c1.331,0.024,2.996,0.258,4.262,0.641
			c0.561,0.179,1.051,0.344,1.742,0.62l-0.014,0.072c1.271,0.755,2.675,0.792,4.005,1.632c0.358,0.067,0.728,0.878,1.225,0.599
			c0.15,0.399,0.736,0.433,0.887,0.833c0.75,0.361,1.178,1.258,2.026,1.489c0.136,0.471,0.715,0.95,1.034,1.231
			c1.348,1.141,2.979,1.963,4.044,3.423c0.854,0.604,1.582,1.481,2.271,2.575c0.768,0.663,1.175,2.074,2.396,2.301
			c0.083,0.757,0.958,0.845,1.447,1.01c0.832,1.12,2.169,1.516,2.988,2.707c0.998,0.631,1.386,1.743,2.396,2.301
			c0.667,1.609,1.552,2.441,2.593,4.045c-0.122,1.462,1.677,2.167,1.184,3.635c0.153,0.771,0.76,1.106,1.353,1.513
			c-0.178,0.561,0.409,0.596,0.676,1.166c0.625,0.635,0.156,1.959,1.475,2.055c0.11,0.614,0.702,1.022,0.668,1.61
			c0.5,0.91,1.106,1.244,1.45,2.199c-0.027,0.143-0.009,0.444-0.178,0.561c0.728,0.878,0.397,1.856,1.578,2.298
			c0.681,1.537,1.074,3.021,1.187,4.824c0.585,0.85-0.62,1.741,0.265,2.573c0.213,0.856-0.97,1.231-0.346,1.868
			c-0.114,1.018-0.457,2.069-0.746,2.832c-0.782,1.416-0.437,3.558-1.551,4.763c-0.272,1.063-0.471,2.141-1.088,3.065
			c-0.162,1.679-1.16,3.053-1.582,4.534c-0.251,0.548-1.35,0.865-0.836,1.702c-0.859,1.029-1.288,2.139-2.075,3.181
			c-0.662,0.769-0.026,2.149-1.269,2.438c-0.464,0.508-0.22,1.593-1.136,1.721c0.24,0.713-0.962,0.787-0.265,1.436
			c-0.642,0.253-1.074,0.989-1.209,1.708c-0.499,1.095-1.546,1.941-1.916,3.135c-0.302,0.018-0.687,0.095-0.668,0.396
			c0.175,0.255,0.011,0.744-0.102,0.945c-0.386,0.077-0.178,0.562-0.433,0.737c-1.189,0.003-0.606,1.671-1.679,1.843l0.059,0.086
			c-0.236,0.476-0.838,0.513-1.017,1.073c-0.489-0.164-0.074,0.804-0.647,0.697l-0.04,0.215c-0.489-0.164-0.18,0.562-0.492,0.652
			c-0.327,0.162-0.546,0.938-1.094,0.688l-0.039,0.215c-0.426,0.292-0.919,0.945-1.636,0.812c-0.354,0.306-0.057,1.104-0.847,0.957
			c-0.039,0.216-0.653,0.324-0.837,0.514c-0.574-0.106-0.191,0.633-0.578,0.71c-0.393,0.521-1.004,0.278-1.214,0.61l-0.179,0.097
			c-0.124-0.185-0.634-0.191-1.077-0.199c-0.667,0.396-0.795,1.486-1.769,1.528l-0.039,0.216c-0.652-0.492-0.95,0.716-1.551,0.753
			c-1.159,1.047-2.697,1.728-3.935,2.39c-0.561-0.178-0.792,0.67-1.412,0.407c-1.289,0.949-2.964-0.029-4.442,0.735
			c-0.684-0.72-1.08,0.617-1.718,0.054c-0.817-0.003-1.839,0.699-2.449-0.008c-0.915,0.127-1.687,0.281-2.502,0.279
			c-0.847,0.957-1.88-0.274-2.746,0.382c-0.717-0.132-1.771,0.341-2.593-0.034c-0.911,1.316-1.459-0.938-2.228,0.404
			c-0.532-1.138-1.364-0.253-2.119-0.987c-0.341,0.234-0.844,0.142-1.005-0.186c-0.325-0.654-1.248-0.083-1.612-0.521
			c-0.391-0.295-0.651-0.491-0.787-0.963c-0.157,0.046-0.17,0.117-0.196,0.261c-0.87,0.285-1.2-0.742-2.088-0.758
			c-0.104-0.241-0.4-0.465-0.521-0.394l0,0c-2.205-0.928-4.59-0.479-6.427-1.785l-0.241,0.104c-0.253-0.641-0.947-0.102-1.128-0.729
			c-0.88-0.46-2.433-0.896-3.476-1.684c-1.521-0.208-1.712-1.58-3.077-1.833c-0.253-0.641-1.011-0.558-1.558-0.809
			c-1.24-0.525-1.772-2.982-3.43-2.53c-0.703-0.151,1.622,2.629-0.666,0.584c-0.455-0.753-1.263-1.199-1.548-2.069
			c-0.242,0.104-0.314,0.09-0.588-0.034c-0.024-0.673-0.912-0.689-1.191-1.187c-0.529,0.051-0.893-0.388-0.885-0.832
			c0.178-0.562-0.651-0.492-0.558-0.995c-0.17,0.117-0.139,0.346-0.224,0.404c-0.71-0.577-1.327-1.657-2.305-1.987
			c0.236-0.476-0.383-0.738-0.402-1.038c-0.672,0.023-0.603-1.152-1.016-0.932l-0.22-0.413l-0.085,0.06
			c-0.154-0.771-1.217-1.043-0.888-2.021c-0.548-0.25-1.024-0.485-1.048-1.159c0.335-0.606-0.422-0.524-0.5-0.909
			c-0.112-1.804-1.558-2.813-1.67-4.617c0.309-0.463-0.074-1.202-0.327-1.843C2.97,66.956,2.69,66.46,2.909,65.683
			c0.34-0.234-0.064-0.457-0.023-0.673c0.042-1.032-0.947-2.106-0.649-3.313c-0.612-0.708-0.184-1.815-0.396-2.673
			c-0.173-1.071-0.059-2.09-1.029-2.863c-0.257-1.014,0.7-2.173-0.029-3.051c0.204-0.704-0.519-1.21-0.157-1.959
			c-0.657-0.864-0.21-1.673-0.625-2.641c0.476-1.769,0.437-3.558,0.971-5.242c0.067-0.358-0.258-1.013,0.311-1.279
			c0.226-1.221,0.721-2.689,0.529-4.061l0.072,0.013c0.508-1.54,1.617-3.117,1.824-4.638c0.543-0.122,0.16-0.861,0.819-0.813
			c-0.466-1.497,1.175-1.936,1.271-3.255c0.785-0.226-0.017-1.117,0.827-1.257c0.361-0.75,0.678-1.657,1.17-2.309
			c0.407-0.593,0.944-1.087,1.148-1.792c0.575,0.106,0.408-0.593,0.878-0.729c2.559-3.387,6.021-5.643,8.773-8.474
			c0.399-0.149,2.877-2.255,6.695-4.014c0.985-0.36,0.753,0,0.1,0.553c-0.44,0.585-0.837,1.333-0.352,0.804
			c1.273-0.061,1.699-0.811,2.986-0.944c0.503,0.093,0.577-0.71,1.125-0.46c0.766-0.526,1.529-0.236,2.165-0.861
			c0.186-1.005,1.609-0.667,1.854-1.588c0.508,0.466,0.484-0.208,0.87-0.285c1.359-0.12,1.898-1.43,3.316-1.464
			c0.362-0.75,1.378,0.181,1.492-0.837c0.771-0.155,1.255-0.362,2.117-0.203c0.458-0.064-0.023-0.672,0.263-0.619
			c0.574,0.106,0.819-0.814,1.497-0.466c0.792-0.67,1.782,0.405,2.282-0.691c0.327-0.162,0.659,0.048,1.032,0.042
			c-0.112,0.202-0.008,0.444,0.136,0.471c1.103,0.056,0.697-1.356,1.819-1c0.079-0.432,0.596-0.41,0.909-0.5
			c1.392,0.109,1.71-1.614,3.219-1.335c0.843-0.141,2.193,0.184,2.348-1.051c0.295-0.391,0.842-0.14,1.229-0.218
			C55.519,0.571,55.994,0.807,56.381,0.73L56.381,0.73z"/>
	</g>
	<path fill="#005BAA" d="M19.865,89.079c-0.026,0.143-0.17,0.116-0.242,0.104l0.12-0.646C19.846,88.778,19.833,88.85,19.865,89.079
		L19.865,89.079z"/>
	<path fill="#005BAA" d="M22.012,90.003c-0.169,0.117-0.353,0.306-0.542,0.123l-0.117-0.17
		C21.622,89.708,22.033,89.487,22.012,90.003L22.012,90.003z"/>
	<polygon fill="#005BAA" points="20.823,90.006 20.85,89.862 20.994,89.889 20.823,90.006 	"/>
	<path fill="#005BAA" d="M23.225,90.673c-0.098,0.13-0.21,0.333-0.38,0.45c-0.319-0.282-0.808-0.447-0.428-0.896L23.225,90.673
		L23.225,90.673z"/>
	<g>
		<defs>
			<rect id="SVGID_3_" x="0" width="541.339" height="100"/>
		</defs>
		<clipPath id="SVGID_4_">
			<use xlink:href="#SVGID_3_"  overflow="visible"/>
		</clipPath>
		<path clip-path="url(#SVGID_4_)" fill="#005BAA" d="M19.306,88.562c-0.14,0.01-0.31,0.047-0.53,0.015
			c-0.306-0.296-0.832-0.624-0.302-0.639L19.306,88.562L19.306,88.562z"/>
		<path clip-path="url(#SVGID_4_)" fill="#005BAA" d="M48.306,99.998c-0.228,0.031-0.75-0.361-0.906-0.317
			c0.196-0.26,0.641-0.251,1-0.186L48.306,99.998L48.306,99.998z"/>
	</g>
	<path fill="#005BAA" d="M33.869,6.469l0.02,0.024c0.319,0.103,0.632-0.898,0.683-0.187c-0.035,0.504,0.301-0.119,0.509-0.008
		c-0.009-0.31,0.635-0.347,0.438-0.744c0.053-0.082,0.271-0.057,0.204-0.242c0.15,0.04,0.174,0.218,0.052,0.315
		c-0.024,0.218,0.242,0.205,0.212,0.465c-0.142,0.469-0.771,0.375-0.946,0.752c-0.333-0.171-0.239,0.546-0.602,0.24
		c0.03-0.261,0.693-0.075,0.336-0.425c-0.523,0.139-0.82,0.612-1.362,0.727c-0.125-0.257,0.146-0.513,0.283-0.74
		c0.043,0.005,0.126,0.059,0.155-0.005c0.044-0.193-0.218-0.024-0.198-0.198C33.729,6.343,33.787,6.416,33.869,6.469L33.869,6.469z"
		/>
	<path fill="#005BAA" d="M32.181,7.645c0.188,0.088-0.02,0.174-0.054,0.28l-0.339,0.071c-0.048-0.16,0.116-0.251,0.238-0.348
		C32.069,7.653,32.151,7.707,32.181,7.645L32.181,7.645z"/>
	<path fill="#005BAA" d="M27.054,9.845c0.368,0.133-0.039,0.266-0.105,0.429l-1.105,0.521c-0.302-0.301-0.469-0.2,1.004-0.837
		C26.933,9.965,26.997,9.94,27.054,9.845L27.054,9.845z"/>
	<path fill="#005BAA" d="M31.376,8.714c0.007,0.03,0.03,0.121-0.03,0.135c-0.136,0.097-0.233-0.039-0.338-0.076L31.376,8.714
		L31.376,8.714z"/>
	<path fill="#005BAA" d="M45.238,1.471c0.008,0.031-0.014,0.068-0.036,0.107l-0.09,0.023l0.02-0.166
		C45.17,1.458,45.178,1.488,45.238,1.471L45.238,1.471z"/>
	<path fill="#005BAA" d="M46.688,1.37c-0.099,0.348-0.491,0.325-0.751,0.428c0.047-0.302,0.414-0.37,0.622-0.553L46.688,1.37
		L46.688,1.37z"/>
	<path fill="#005BAA" d="M48.215,1.084c0.049,0.18,0.22,0.102,0.334,0.167c-0.123,0.258-0.601,0.387-0.339,0.767
		c-0.206,0.184-0.552,0.213-0.599,0.515c-0.166-0.019-0.359,0.098-0.446-0.104c0.371,0.061,0.037-0.46,0.412-0.497
		c-0.048-0.18-0.165-0.374-0.391-0.376L46.798,1.66c0.042-0.204,0.799-0.248,0.487-0.453C47.578,1.097,48.016,0.818,48.215,1.084
		L48.215,1.084z"/>
	<path fill="#005BAA" d="M27.807,9.319c-0.005,0.043-0.006,0.242-0.155,0.203L27.618,9.43C27.706,9.44,27.759,9.358,27.807,9.319
		L27.807,9.319z"/>
	<path fill="#005BAA" d="M48.899,0.997c0.152,0.088,0.208-0.184,0.367-0.067l0.047,0.18c-0.198,0.214-0.45-0.006-0.682,0.088
		l0.021-0.038c0.009,0.03-0.001-0.048,0.029-0.057c0.059-0.016,0.151,0.009,0.194-0.067l-0.113-0.066l0.12-0.032L48.899,0.997
		L48.899,0.997z"/>
	<path fill="#005BAA" d="M31.575,7.865c-0.054,0.429-0.392,0.097-0.603,0.404c-0.06,0.016-0.128,0-0.173-0.052
		c0.075,0.3-0.264,0.224-0.376,0.412c-0.091,0.023-0.218-0.105-0.249,0.03c-0.09-0.106,0.045-0.203,0.098-0.248
		c0.113-0.059,0.286-0.007,0.279-0.164l0.61-0.247l-0.045-0.181C31.275,7.684,31.395,7.909,31.575,7.865L31.575,7.865z"/>
	<path fill="#005BAA" d="M50.963,0.792l0.016,0.06c-0.342-0.196-0.553,0.213-0.854,0.167c0.088-0.152-0.177-0.178-0.089-0.33
		C50.337,0.737,50.708,0.443,50.963,0.792L50.963,0.792z"/>
	<path fill="#005BAA" d="M47.92,1.774l-0.149,0.041c-0.063-0.111,0.011-0.195,0.101-0.22L47.92,1.774L47.92,1.774z"/>
	<path fill="#005BAA" d="M43.345,2.879c-0.044,0.194,0.053,0.315,0.052,0.514l0.115,0.145c-0.14,0.073-0.319,0.096-0.441,0.193
		c-0.058-0.073-0.028-0.135-0.019-0.222L42.476,3.53C42.58,3.013,43.029,3.13,43.345,2.879L43.345,2.879z"/>
	<path fill="#005BAA" d="M46.483,2.516c0.016,0.06,0.046,0.051,0.084,0.073c0.011-0.196,0.269-0.072,0.419-0.113
		c0.059,0.337-0.546,0.116-0.374,0.519c-0.158,0.01-0.417,0.241-0.451-0.007C46.121,2.839,46.35,2.616,46.483,2.516L46.483,2.516z"
		/>
	<path fill="#005BAA" d="M28.177,9.717c0.072,0.141,0.213,0.069,0.324,0.059c0.3-0.119,0.166-0.488,0.461-0.565
		c0.125,0.059,0.242,0.006,0.314,0.146c-0.044,0.193-0.17,0.333-0.272,0.454c-0.02-0.023-0.063-0.029-0.106-0.034
		c-0.097,0.077,0.047,0.159-0.112,0.208c-0.125-0.257-0.281,0.144-0.435-0.049c-0.122,0.096-0.025,0.217-0.209,0.284l-0.304-0.233
		C27.896,9.862,28.042,9.746,28.177,9.717L28.177,9.717z"/>
	<path fill="#005BAA" d="M30.422,8.968c0.218,0.024,0.437-0.148,0.494,0.123c0.014,0.068-0.078,0.102-0.102,0.121
		c-0.097-0.121-0.173-0.219-0.353-0.195c-0.141,0.072-0.001,0.199-0.016,0.33c-0.083-0.055-0.117,0.052-0.185,0.067
		c-0.073,0.256,0.222,0.18,0.29,0.363c-0.156,0.204-0.312,0.406-0.486,0.585c-0.213-0.068-0.053-0.315-0.076-0.494l0.193-0.155
		c-0.004-0.155-0.173-0.218-0.323-0.257c-0.111-0.189,0.102-0.32,0.262-0.367C30.252,9.103,30.407,9.099,30.422,8.968L30.422,8.968z
		"/>
	<path fill="#005BAA" d="M40.934,4.743c-0.136,0.029-0.238,0.149-0.335,0.226C40.391,4.659,40.803,4.729,40.934,4.743L40.934,4.743z
		"/>
	<path fill="#74C161" d="M22.495,55.415c0.041,0.034,0.081,0.067,0.122,0.101C22.558,55.497,22.501,55.481,22.495,55.415
		L22.495,55.415z"/>
	<path fill="#7DC242" d="M60.08,50.78c-0.087,0.507-0.587,0.608-0.923,0.745c-0.063-0.166-0.248-0.076-0.292-0.116
		c-0.028,0.084-0.106,0.086-0.146,0.089l-0.051-0.083c0.021-0.128,0.14-0.132,0.155-0.301c-0.338-0.158-0.047,0.508-0.414,0.14
		c-0.279,0.262-0.411-0.113-0.645,0.189c-0.17-0.079-0.235,0.007-0.438-0.028c-0.021,0.127-0.14,0.13-0.229,0.049
		c-0.144,0.385-0.627,0.315-0.732,0.697c-0.085-0.039-0.19,0.049-0.202-0.035c-0.23,0.049-0.832,0.329-0.942,0.669
		c-0.066,0.087-0.163-0.036-0.208-0.077c0.313-0.305,0.592-1.206,0.774-1.592c-0.052-0.083,0.062-0.197-0.074-0.25
		c-0.349-0.135-0.531,0.438-0.874,0.238c-0.005,0.254-0.28,0.262-0.42,0.394c-0.514,0.269-0.888,0.702-1.409,0.929
		c0.017,0.126-0.174,0.174-0.241,0.26c-0.4,0.519-1.02,1.17-1.5,1.691c-0.126,0.51-0.794,0.529-0.668,1.159
		c-0.475,0.267-0.786,1.683-1.023,1.604c-0.407-0.136-0.062-2.033,0.102-2.84c-0.277-0.286,0.052-0.89-0.353-0.831
		c-0.405,0.059-0.527,1.027-0.778,1.499c-0.073,0.582-0.162,1.357-0.279,1.977C48,57.43,48.01,57.805,47.962,58.702
		c-0.229,0.345,0.09,0.925-0.269,1.188c0.223,0.456-0.146,0.933,0.148,1.344c-0.199,0.555-0.084,1.099,0.01,1.769
		c0.434,0.282-0.07,0.636,0.102,1.009c0.041,0.294,0.06,0.726,0.179,1.021l0.04-0.002c0.098,0.426,0.084,0.897,0.293,1.275
		c-0.279,0.266,0.347,0.716,0.158,1.064c0.018,0.127-0.067,0.175-0.146,0.177c0.085,0.505,0.152,1.054,0.225,1.601
		c0.362,1.106,0.249,1.764,0.488,2.443c-0.212,0.179,0.215,0.421-0.081,0.559c0.318,0.59,0.432,1.265,0.437,1.863l-0.168,0.098
		c-0.21,0.478-0.223,1.248-0.626,1.475c0.164,0.264-0.141,0.938-0.318,1.073c-0.349,0.053-1.196,0.224-1.521,0.148
		c-0.406-0.082-0.795,0.131-1.419,0.248c-0.283,0.054-0.586,0.11-0.894,0.17c-0.285,0.056-0.574,0.111-0.853,0.167
		c-0.785,0.156-1.443,0.423-1.847,0.378c-0.267-0.007-0.779,0.493-1.526,0.785c-0.365,0.144-2.137,1.298-1.839,1.669
		c0.287-0.08,1.029-0.617,1.355-0.647c0.072-0.012,0.316-0.12,0.625-0.255c0.174-0.076,0.369-0.161,0.565-0.243
		c0.574-0.238,1.162-0.448,1.289-0.328c0.239-0.062,0.463-0.219,0.694-0.323c0.159-0.073,0.828-0.235,0.713-0.042l1.569-0.338
		c0.836-0.471,1.153,0.093,2.241-0.326c0.556-0.059,1.043,0.167,1.505,0.462c0.274-0.054,0.517,0.356,0.771,0.53
		c0.239,0.162,0.476,0.309,0.719,0.41c0.055,0.683,0.92,0.92,1.137,1.676c0.229-0.061,0.172,0.287,0.346,0.359
		c0.182,0.174,0.455,0.472,0.417,0.672c0.253,0.256,0.614,0.369,0.854,0.629c0.149,0.162,0.339-0.064,0.448,0.49
		c0.259,0.287,0.804,0.538,0.777,0.859c0.155,0.169,0.31,0.337,0.467,0.504c0.033,0.426,0.458,0.477,0.697,0.709
		c0.284,0.277,0.581,0.547,0.891,0.808c0.095,0.078-0.016,0.336-0.071,0.509c0.226-0.093,0.558-0.031,0.722-0.001l-0.241,0.327
		c0.254,0.132,0.761,0.021,0.997,0.176c0.103,0.068-0.166,0.157-0.068,0.234c0.153,0.123,0.688,0.214,0.843,0.336
		c0.278,0.218,0.553,0.442,0.833,0.65c0.475,0.354,0.97,0.669,1.539,0.856c0.235,0.196,0.253,0.237,0.574,0.041
		c-0.007-0.257-0.029-0.364-0.171-0.481c-0.32-0.347-0.786-0.723-0.894-1.183c-0.284,0.016-0.333-0.613-0.325-0.752
		c0.041-0.138,0.244-0.351,0.484-0.271c0.144,0.019,0.256,0.194,0.304,0.234c0.204-0.014,0.452,0.467,0.594,0.585
		c0.189,0.162,0.353,0.311,0.514,0.441c0.271,0.222,0.539,0.393,0.933,0.496c-0.008,0.173,0.101,0.121,0.147,0.161
		c0.378,0.273,1.088,0.423,1.186,0.618c0.529,0.189,2.05-0.021,2.603,0.023c0.503-0.067,0.85,0.048,1.415,0.078
		c0.093-0.171,2.894-1.033,3.805-1.134c0.252-0.089,0.184-0.338,0.067-0.444c-0.296-0.026-0.308-0.188-0.615-0.124
		c-0.13-0.148-0.929,0.17-1.146,0.12c-0.283,0.004-1.951,0.268-2.254,0.177c0,0-0.063-0.087,0.004-0.324
		c0.081-0.281,1.978-0.363,2.396-0.607l-0.008,0.081c0.732,0.007,2.53-1.35,3.413-1.43c0.155-0.32,0.705-0.331,1.092-0.403
		c0.716-0.133,0.807,0.139,1.514-0.384c0.167,0.004,0.101-0.272,0.312-0.146l0.324-0.313c0.272,0.067,0.105-0.196,0.35-0.212
		c0.291-0.113,1.75-0.813,1.827-1.184c0.11-0.549-1.855,0.129-2.186-0.451c-0.029-0.434-0.502,0.025-0.646-0.381
		c-0.105-0.38-1.5-0.23-2.097-0.747c-0.105-0.062-0.725-0.219-0.892-0.229c-0.386-0.183-0.817-0.35-1.178-0.45
		c0,0-0.619-0.323-0.646-0.501c-0.044-0.278,1.009-0.242,1.33-0.265c0.501-0.104,1.549,0.071,1.502-0.31
		c-0.049-0.381-1.507-0.869-2.355-0.957c-0.25-0.464-1.82,0.203-1.976-0.219c-0.399,0.023-1.158-0.002-1.616,0.1
		c-0.255-0.227-0.614-0.051-0.879-0.319c-0.438,0.186-0.8-0.329-1.208-0.19c-0.353-0.127-0.733-0.208-1.085-0.164
		c-0.76-0.161-1.953,0.276-2.603-0.231c-0.635-0.209-1.151-0.427-1.747-0.424c-0.713-0.203-1.641-0.938-1.95-0.665
		C59,76.077,58.8,76.335,58.541,76.172c-0.403,0.228-0.725-0.104-1.175-0.219c-0.054-0.384-0.719-0.062-0.334-0.417
		c0.353-0.312,1.05-0.12,1.479-0.433c0.406,0.372,0.804,0.103,1.153,0.348c0.774-0.109,1.695-0.011,2.456,0.35
		c0.414-0.142,1.067,0.009,1.622,0.034c0.469,0.242,0.911,0.013,1.266,0.302c0.185-0.091,0.448-0.186,0.702-0.065l0.084,0.04
		c0.018,0.128-0.007-0.042,0.032-0.043c0.193,0.25,0.392-0.313,0.682,0.063c0.06-0.131,0.263-0.094,0.38-0.098
		c0.388,0.244,0.971-0.117,1.505,0.037c0.213-0.178,0.46-0.1,0.741-0.066c0.604-0.19,1.398,0.074,1.834-0.496
		c0.288,0.076,0.98,0.33,0.858-0.208c-0.121-0.539-2.66-0.931-3.608-0.943c-0.205-0.043-0.306-0.302-0.014-0.445
		c0.608-0.394,1.884,0.136,2.535-0.014c0.399,0.33,0.718-0.235,1.027,0.01c0.382-0.098,0.757-0.237,1.099-0.334
		c0.561-0.232,1.018,0.224,1.375-0.344c0.089,0.083,0.234-0.007,0.359,0.031l0.054-0.173c0.825-0.326,1.175-0.064,1.859-0.697
		c0.241,0.036,1.158-0.468,1.02-0.765c-0.057-0.119-0.575-0.094-1.282-0.13c-0.548,0.317-1.463-0.131-2.023,0.102
		c0.041-0.054-0.115-0.112-0.01-0.161c0.412-0.188,1.419-0.343,1.502-0.651c0.639-0.108,1.275-1.068,1.96-1.261
		c0.282-0.522,1.024-0.29,1.219-0.896c0.516,0.027,0.839-0.497,1.31-0.512c0.012-0.215,0.271-0.052,0.319-0.268
		c-0.175-0.123-0.473-0.284-0.568-0.409c0.06-0.131,0.189-0.05,0.263-0.094c0.027-0.087-0.002-0.3-0.158-0.296
		c-0.561-0.624-1.297-1.646-1.861-1.48c-0.722-0.363-1.411-0.212-2.081-0.49c-0.255-0.42-0.604,0.19-0.787-0.274
		c-0.35-0.246-1.097-0.108-1.457-0.141c-0.13-0.081-0.023-0.17,0.011-0.213c0.402-0.228,1.476-0.581,1.355-0.885
		c-0.038-0.195-0.793-0.317-1.231-0.346c-0.275,0.009-0.417-0.158-0.597-0.324c-0.736-0.19-1.308,0.256-1.91-0.109
		c-0.328,0.48-0.949-0.013-1.301,0.298c-0.163-0.037-0.207,0.221-0.32-0.032c-0.062,0.13-0.083,0.26-0.279,0.266
		c-0.377-0.159-0.778,0.367-1.392,0.216c-0.099,0.432-1.185,0.569-1.442,0.705c-0.248-0.076,0.049-0.214,0.031-0.342
		c0.452-0.443,1.52-1.009,2.062-1.369c0.15-0.347,1.018-0.606,0.854-0.968c-0.103-0.228-2.028,0.398-2.241,0.287
		c-0.643,0.204-1.286,0.468-1.723,0.738c-0.477-0.028-0.784,0.324-1.207,0.124c-0.16,0.262-0.418,0.398-0.784,0.324
		c-0.296,0.138-0.581,0.361-0.975,0.374c-0.116,0.303-0.438-0.028-0.508,0.316c-0.36-0.032-0.465,0.356-0.824,0.325
		c-0.397,0.27-0.759,0.795-1.31,0.812c0.018,0.129-0.128,0.219-0.195,0.307c-0.444-0.071-0.407,0.483-0.761,0.495
		c-0.212,0.179-0.334,0.439-0.643,0.491c-0.378,0.697-0.873,1.365-1.691,1.767c-0.145,0.391-0.729,0.151-1.049,0.419
		c-0.459,0.1-0.348,0.909-0.994,0.802c-0.082,0.26,0.328,0.675,0.065,0.769c-0.122,0.261-0.057,0.729-0.501,0.658
		c-0.332-0.117,0.025-0.386-0.228-0.505c-0.174-0.566-0.227-1.154-0.181-1.724c0.27-0.149,0.088-0.645,0.179-0.948
		c0.144-0.479,0.361-0.92,0.642-1.288l0.052,0.085c0.201-0.264,0.328-0.781,0.805-0.754c0.004-0.258,0.165-0.52,0.396-0.569
		c0.217-0.136,0.406-0.484,0.721-0.494c0.312-0.39,1.305-1.122,1.049-1.308c0.489-0.466,0.962-0.658,1.374-1.134
		c0.062-0.08-0.097,0.043,0.069-0.307c0.24-0.26,0.985-0.661,0.974-0.991c0.256-0.428,0.804-0.74,0.958-1.336
		c0.101-0.129,0.298-0.135,0.269-0.345c0.265-0.317,0.557-0.82,0.336-0.982c-0.112,0.046-1.209,0.669-1.096,0.918
		c-0.179,0.132-0.285,0.104-0.28-0.029c0.163-0.477,0.383-0.933,0.594-1.392c0.446-0.453,0.583-1.3,0.668-2.02
		c0.402-0.223,0.239-1.409,0.12-1.434c-0.122-0.107-0.842,1.631-1.062,1.531c-0.219-0.101,0.033-1.684,0.328-2.521
		c0.02-0.422,0.124-0.804,0.061-1.267c0.216-0.427,0.961-0.749,0.842-1.037c-0.12-0.288-0.782,0.615-1.066-0.009
		C60.522,50.555,60.394,50.77,60.08,50.78L60.08,50.78z"/>
	<path fill="#7DC242" d="M56.542,38.756c-0.274,0.194-0.524,0.54-0.811,0.592c-0.368,0.28-0.685,0.718-1.06,0.881
		c-0.197,0.181-0.386,0.368-0.565,0.563c-0.132,0.278-0.499,0.278-0.673,0.572c-0.293,0.248-0.562,0.578-0.709,0.886
		c-0.356,0.227-0.49,0.583-0.746,0.842c-0.271,0.274-0.548,0.533-0.807,0.8c-0.379,0.159-0.579,0.494-0.762,0.929
		c-0.118,0.117-0.191,0.376-0.422,0.467c-0.433,0.17-0.575,0.707-0.875,1.102c-0.152,0.199-0.301,0.399-0.442,0.588
		c-0.298,0.402-0.56,0.764-0.723,0.991c-0.069,0.102-0.136,0.201-0.203,0.299c-0.23,0.337-0.534,0.504-0.66,0.968
		c-0.51,0.441-0.543,1.178-1.041,1.539c-0.135,0.202-0.267,0.403-0.398,0.604c-0.377,0.309-0.444,0.978-0.865,1.368
		c-0.176,0.287-0.353,0.583-0.533,0.893c-0.286,0.358-0.446,0.774-0.681,1.199c-0.151,0.272-0.141,0.633-0.464,0.853
		c-0.029,0.081-0.165,0.143-0.255,0.182l-0.007,0.275c-0.319,0.395-0.365,0.801-0.545,1.199c-0.042,0.401-0.375,0.725-0.723,0.994
		c-0.29,0.599-0.525,1.182-0.844,1.757c-0.279,0.573-0.686,0.999-0.861,1.682c-0.164,0.299-0.333,0.593-0.51,0.886
		c-0.127,0.373-0.256,0.649-0.384,0.976c-0.321,0.016-0.038,0.286-0.216,0.462c-0.274,0.488-0.563,0.778-0.791,1.28
		c-0.056,0.124-0.063,0.454-0.117,0.577c-0.219,0.501-0.285,1.098-0.642,1.518c-0.206,0.491-0.417,0.984-0.65,1.48
		c-0.096,0.324-0.299,0.646-0.269,0.956c-0.068,0.227-0.143,0.441-0.235,0.638c-0.097,0.793-0.396,1.294-0.599,1.909
		c-0.13,0.392,0.034,0.726-0.387,1.166c-0.121,0.128-0.053,0.364-0.163,0.504c-0.288,0.362-0.321,0.802-0.373,1.237
		c-0.048,0.396-0.116,0.61-0.237,0.904c-0.247,0.598-0.274,1.166-0.439,1.739c-0.009,0.601-0.299,0.981-0.477,1.457
		c-0.034,0.383-0.111,0.907-0.283,1.276c-0.342,0.837-0.358,1.85-0.746,2.729c-0.072,0.67-0.236,1.33-0.446,1.986
		c-0.204,0.479-0.216,1.064-0.334,1.624c-0.083,0.398-0.436,0.771-0.363,1.147c-0.093,0.435-0.005,0.862-0.333,1.187
		c-0.12,0.616-0.045,1.541-0.351,2.091c-0.408,0.355,0.104,0.862-0.262,1.278c0.28,0.108,0.986,0.333,1.047,0.479
		c0.061,0.147,0.731,0.311,0.779,0.205c0.108-0.66,0.387-1.13,0.336-1.836c-0.083-0.867,0.278-1.371,0.43-2.166
		c0.05-0.317,0.224-0.577,0.153-0.945c0.272-0.77,0.343-1.793,0.658-2.695c-0.151-0.45,0.253-0.748,0.103-1.149
		c0.219-0.586,0.414-1.101,0.583-1.748c-0.051,0.194-0.243,0.188,0.1-0.972c0.031-0.313,0.484-1.152,0.569-1.439
		c0.109-0.372,0.001-0.771,0.067-1.172c0.109-0.368,0.393-0.58,0.502-0.972c0.11-0.393,0.08-1.078,0.436-1.34
		c0.122-0.428,0.1-0.919,0.231-1.342c0.274-0.069,0.123-0.52,0.118-0.666l-0.048-0.052c0.268-0.263,0.407-0.611,0.504-0.988
		c0.099-0.377,0.156-0.783,0.259-1.16c0.173-0.369,0.304-0.598,0.383-1.025c0.147-0.24,0.24-0.531,0.32-0.83
		c0.086-0.324,0.159-0.656,0.27-0.947c0.232-0.228,0.34-0.549,0.428-0.888c0.116-0.443,0.197-0.917,0.474-1.246
		c0.41-0.266,0.319-0.754,0.433-1.149c0.278-0.355,0.145-1.025,0.504-1.318c0.359-0.304,0.435-0.826,0.468-1.259
		c0.193-0.359,0.544-0.626,0.56-1.088c0.287-0.241,0.364-0.743,0.544-1.116c0.278-0.062,0.311-0.648,0.468-0.973
		c-0.021-0.429,0.337-0.689,0.512-1.033c0.035-0.469,0.423-0.817,0.65-1.221c0.222-0.151,0.256-0.514,0.388-0.772
		c0.036-0.384,0.302-0.589,0.452-0.879c0.253-0.175,0.187-0.743,0.508-0.97c0.228-0.073,0.307-0.501,0.438-0.729
		c0.205-0.243,0.514-0.386,0.544-0.789c0.204-0.354,0.383-0.729,0.562-1.108c0.011-0.464,0.383-0.815,0.606-1.205
		c0.275-0.229,0.477-0.76,0.793-1.084c0.252-0.797,0.988-1.056,1.207-1.959c0.452-0.369,0.579-0.851,0.843-1.259
		c0.077-0.475,0.911-0.295,0.612-1.001c0.591-0.279,0.875-0.949,1.229-1.397c0.688-0.076,0.385-0.927,0.932-1.115
		c0.5-0.191,0.65-1.007,1.105-1.155c0.158-0.854,0.988-0.873,1.332-1.661c0.36-0.254,0.837-1.447,1.391-1.39
		c0.228-0.074,0.226-0.783,0.646-0.597c-0.008-0.242,0.261-0.551,0.397-0.585c0.087-0.571,0.505-0.824,0.426-0.825
		c0.036-0.055,0.056-0.119,0.051-0.211C57.226,38.28,56.788,38.391,56.542,38.756L56.542,38.756z"/>
	<path fill="#7DC242" d="M25.363,59.605c0.011-0.344,0.119-0.705-0.095-1.262c0.104-0.258-0.138-0.664-0.257-1.036
		c-0.009-0.02-0.019-0.037-0.028-0.055c0-0.302-0.324-0.42-0.427-0.799c-0.097-0.079-0.057-0.312-0.2-0.297
		c-0.225,0.471-0.626-0.076-0.882-0.148c-0.119-0.251-0.305-0.118-0.456-0.191c-0.09-0.062-0.178-0.127-0.265-0.194
		c0.021,0.061-0.06,0.115-0.038,0.175c0.195,0.523,0.419,1.188,0.808,1.513c0.252,0.368,0.523,0.713,0.785,1.018
		c0.033,0.411,0.401,0.332,0.424,0.821c0.217-0.04,0.361,0.251,0.508,0.43C25.28,59.628,25.321,59.56,25.363,59.605L25.363,59.605z
		 M42.641,44.206c-0.026,0.048-0.098,0.125-0.051,0.205c-0.14,0.372,0.076,0.965-0.282,1.245c-0.122,0.282-0.149,0.721-0.371,0.912
		c-0.224,0.583-0.276,1.099-0.758,1.524l0.041,0.145c-0.32,0.1-0.288,0.593-0.555,0.813l-0.02-0.018
		c-0.527,0.505-0.945,0.711-1.035,1.376c-0.184,0.011-0.285,0.348-0.593,0.427c-0.278,0.353-0.457,0.758-0.755,1.091
		c-0.085-0.006-0.137,0.09-0.188,0.187c-0.014,0.023,0.026,0.06,0.047,0.078c-0.198-0.073-0.312,0.25-0.455,0.405l0.014,0.085
		c0.359-0.063,0.526-0.484,0.832-0.668c0.767-0.655,2.179-2.168,2.385-2.101c0.328,0.107-0.024,0.569-0.024,0.569
		c-0.124,0.674-0.765,0.601-0.974,1.268c-0.162,0.138-0.223,0.583-0.485,0.629c-0.082,0.318-0.362,0.454-0.406,0.7
		c-0.31,0.468-0.706,0.82-1.042,1.227c-0.226,0.366-0.525,0.592-0.812,0.794c-0.115,0.324-0.462,0.364-0.642,0.699
		c-0.333,0.124-0.434,0.532-0.767,0.656c-0.438,0.707-1.088,0.646-1.527,1.354c-0.396,0.353-0.833,0.56-1.223,0.953
		c-0.295-0.057-0.428,0.467-0.756,0.416c-0.083,0.209-0.302,0.009-0.378,0.262c-0.144,0.046-0.226,0.365-0.494,0.369
		c-0.136,0.197-0.415-0.167-0.372,0.195c-0.278-0.256-0.413,0.811-0.441,0.034c-0.091,0.059-0.205-0.117-0.269,0.003
		c0.061,0.164-0.22,0.039-0.252,0.152c-0.275,0.679-0.859,0.607-1.241,1.152c0.014,0.084-0.144,0.047-0.163,0.138
		c-0.015,0.014-0.029,0.03-0.042,0.048c0.029,0.435,0.092,0.99-0.104,1.318c-0.056,0.439-0.735,1.229-0.54,1.575
		c0.177,0.312-0.067,2.188-0.077,2.43c-0.026,0.688,0.155,1.05,0.236,1.649c0.275,0.271,0.143,0.428,0.314,1.34
		c0.166,0.329,0.177,0.752,0.157,1.134c0,0.414,0.577,1.215,0.472,1.649c0.021,0.482,0.354,0.552,0.394,1.03
		c0.163,0.71,0.37,0.885,0.472,1.34c-0.053,0.646,1.334,1.335,1.022,1.753c0.075,0.224-0.726-0.279-1.494-1.237
		c-0.598-0.747-1.187-1.92-1.258-2.268c-0.04-0.191-0.347-0.893-0.393-1.236c0.136-0.523-0.211-0.241-0.315-0.825
		c-0.245-0.34-0.25-1.3-0.314-1.648c-0.247-0.524-0.124-1.022-0.394-1.856c-0.105-0.438-0.13-2.798-0.372-3.062
		c-0.399-1.026-1.197-1.248-1.854-1.232c-0.161,0.085-0.533-0.241-0.725,0.079c-0.607-0.136-1.255-0.401-1.841-0.25
		c-0.846-0.351-1.714,0.343-2.497,0.409c-0.223,0.111-0.523,0.125-0.776,0.229c-0.352-0.038-0.694,0.288-1.048,0.049
		c-0.487,0.294-1.099,0.197-1.658,0.152c-0.667,0.093-1.304-0.049-2.055-0.217c-0.289-0.064-0.638,0.099-0.924-0.207l-0.074,0.104
		c-0.091-0.424-0.373,0.118-0.469-0.266c-0.856-0.272-1.851-0.616-2.789-0.946l-0.299,0.013c-0.143-0.918,0.682-0.412,0.918-0.843
		c0.163,0.117,0.311-0.092,0.495-0.131c0.415,0.012,0.752-0.275,1.156-0.186c0.071-0.307,0.908,0.117,1.003-0.145
		c-0.415-0.455-1.552-0.422-2.026-0.648c-0.434-0.097-0.84-0.391-1.216-0.475c-0.735-0.284-1.262-1.007-1.944-1.241
		c-0.004-0.403-0.378-0.285-0.535-0.442c-0.688-0.193-1.128-0.896-1.698-1.307c-0.031-0.208,0.105-0.339,0.232-0.392
		c0.475,0.671,1.424,0.036,1.945,0.798c0.276-0.06,1.402,0.715,1.529,0.22c-0.257-0.301-1.271-0.808-1.52-0.943
		c-0.325-0.234-0.571-0.611-0.947-0.695c-0.456-0.587-0.983-0.865-1.405-1.484c-0.247,0.066-0.223-0.332-0.425-0.377
		c-0.302-0.188-0.443-0.463-0.779-0.617c-0.055-0.255-0.262-0.261-0.436-0.3c-0.16-0.358-0.362-0.403-0.572-0.612l-0.034,0.033
		c0,0-0.21-0.047-0.218-0.372c-0.007-0.323,0.86-0.412,1.278-0.642c0.33-0.45,0.804-0.223,1.17-0.504
		c0.549,0.123,1.033-0.374,1.583-0.251c0.197-0.358,0.449-0.02,0.736-0.158c0.208-0.438,0.563,0.22,0.824-0.165
		c0.087,0.02,0.71,0.101,0.754-0.098c0.035-0.199-0.603-0.124-0.621-0.208c-0.292,0.177-0.205-0.248-0.514-0.156
		c-0.182-0.201-0.486-0.148-0.627-0.421c-0.145-0.033-0.374,0.117-0.405-0.091c0.484-0.497,1.149-0.791,1.73-0.904
		c0.35-0.164,0.704,0.077,0.967-0.106c0.371,0.124,0.879,0.318,1.192,0.428c0.281-0.099,0.486,0.149,0.78,0.174
		c0.733,0.084,2.176,1.291,2.352,1.027c0.175-0.263-1.114-0.712-1.423-1.242c-0.308-0.531,1.804-0.181,2.666,0.051l0.431,0.338
		c0.375,0.084,0.788,0.337,1.107,0.61c0.068-0.065,0.173,0.039,0.265,0.02c0.564,0.64,1.376,0.901,2.054,1.46
		c-0.062-0.089,0.112-0.112,0.053-0.204c-0.316-0.488-0.363-0.928-0.91-1.568c-0.029-0.309-0.194-0.644-0.39-0.99
		c-0.362-0.188-0.422-0.703-0.572-1.057c-0.248-0.113-0.434-0.581-0.576-1.087c0.059-0.285-0.167-0.683-0.227-0.96
		c-0.4-0.422-0.401-1.15-0.582-1.717c0.054-0.12-0.183-0.32,0.149-0.34c0.333-0.02,0.146,0.621,0.506,0.664
		c0.384,0.494,1.061,1.66,1.598,2.058c0.048,0.035,0.049-0.063,0.096-0.039c0.01,0.005-0.171-0.521-0.16-0.518
		c0.039-0.415-0.341-1.064-0.458-1.503c-0.113-0.142-0.239-0.294-0.165-0.493c-0.19-0.392-0.323-0.465-0.417-1.036
		c-0.349-0.204-0.336-0.773-0.518-1.528c-0.148-0.53-0.404-0.737-0.337-1.572c-0.251-0.222-0.302-0.946-0.403-1.431
		c0.038-0.388,0-0.818-0.062-1.263c-0.038-0.581-0.458-1.216-0.156-1.723c-0.051-0.536-0.108-1.588,0.3-1.723
		c0.237-0.078,0.48,1.162,0.478,1.753c0.087,0.094,0.205,1.258,0.395,1.273c-0.001-0.045,0.071,0.019,0.07-0.028
		c-0.021-0.712,0.567-1.622,0.523-2.541c0.183-0.347,0.306-1.005,0.213-1.592c0.149-0.319,0.254-0.845,0.23-1.152
		c0.046-0.603,0.133-1.232,0.544-1.661c0.375-0.377,0.399-1.142,0.845-1.515c0.292-0.245,0.375-0.842,0.837-1.104
		c0.332-0.188,0.336-0.644,0.772-0.873c0.349-0.184,0.668-0.431,0.841-0.838c0.624-0.227,0.639-0.1,0.603,0.324
		c-0.103,0.158-0.013,0.426-0.062,0.584c0.191,0.013-0.013,0.586,0.038,0.745c0.388,0.566-0.114,1.296,0.036,1.875
		c0.101,1.022-0.163,1.501-0.219,2.458c-0.177,0.728,0.05,1.321,0.082,2c0.043,0.028-0.02,0.226-0.069,0.307
		c0.127,0.083-0.02,0.952,0.179,0.98c0.025,0.003,0.048,0.073,0.075,0.01c0.065-0.157,0.427-0.653,0.36-1.072
		c-0.066-0.415,0.081-0.715,0.125-1.048c0.065-0.485,0.087-0.749,0.29-1.035c0.054-0.054,0.011-0.226,0.352-0.179
		c0.34,0.047,0.025,0.679,0.098,0.945c0.002,0.446,0.14,0.773,0.144,1.247c0.321,0.65-0.466,1.918-0.03,2.608
		c-0.042,0.779-0.089,0.972-0.007,1.511c-0.118,0.711,0.164,0.863,0.308,1.424c-0.077,0.638,0.072,1.014,0.079,1.47
		c-0.016,0.232,0.131,0.501,0.25,0.715c-0.04,0.464,0.042,1.009,0.171,1.594c0,0.263-0.105,0.475-0.028,0.686
		c0.014,0.014-0.12,0.588-0.104,0.602c0.013-0.047,0.205-0.092,0.221-0.138c0.295-0.896,0.477-2.144,0.136-3.214
		c0-0.185,0.055-0.378,0.232-0.292c0.061,0.505,0.467,0.825,0.605,1.329c0.022,0.021,0.154,0.412,0.178,0.432
		c0.105,0.961,0.424,1.106,0.754,2.243c-0.078,0.486,0.222,0.823,0.23,1.292c0.134,0.411,0.1,0.907,0.125,1.296
		c0.172,0.317-0.174,1.137-0.025,1.538c0.015,0.041,0.173,0.032,0.196,0.064c0.116-0.202,0.328-0.739,0.175-1.07
		c0.245-0.353-0.106-0.813,0.068-1.23c-0.042-0.028,0.004-0.062-0.038-0.091c0-0.077,0.139-0.24,0.353-0.167
		c0.215,0.074,0.116,0.926,0.306,1.332c-0.04,0.317,0.188,0.677,0.129,1.038c0.346,0.359-0.092,0.623,0.109,1.046
		c0.043,0.788-0.339,1.362-0.256,2.263c0.05,0.789-0.181,0.983-0.294,1.736c-0.014,0.971-0.092,1.158-0.248,1.76
		c-0.106,0.409-0.425,0.773-0.382,1.203c0.048,0.484-0.513,0.83-0.53,1.239c-0.01,0.235-0.173,0.56-0.153,0.867
		c0.019,0.304-0.332,0.595-0.322,0.814c0.009,0.188,0.081,0.68,0.284,0.659c0.281-0.025,0.239,0.334,0.62,0.536
		c0.297-0.022,0.501-0.23,0.82-0.483c0.116-0.273,0.108-0.58,0.405-0.654c0.023,0.002,0.046,0.007,0.069,0.012
		c0.017-0.09,0.034-0.18,0.006-0.252c-0.033-0.103,0.083-0.211-0.029-0.277c-0.001-0.109,0.011-0.133,0.09-0.168
		c-0.232-0.439-0.198-0.492-0.05-1.121l-0.061-0.163c0.047-0.208,0.2-1.041,0.151-1.782c0.023-0.285,0.163-0.539,0.195-0.826
		c-0.079-0.308-0.018-0.803,0.048-1.111c-0.134-0.303,0.322-0.476,0.226-0.851c0.125-0.356,0.031-0.903,0.297-1.252
		c0.084-0.252,0.25-0.734,0.333-0.986c0.417-0.205,0.412-1.225,0.642-1.803c0.041-0.463,0.456-0.548,0.47-1.072l0.046-0.278
		l0.021,0.019c0.18-0.335,0.317-0.888,0.565-1.071c0.22-0.723,0.577-0.901,0.956-1.434c0.032-0.113,0.043-0.246,0.062-0.336
		l0.131-0.023c0.231-0.432,0.606-0.911,0.74-1.325c0.196-0.034,0.049-0.312,0.292-0.268l0.271-0.396l0.04,0.037
		c0.098-0.017,0.135-0.348,0.273-0.178c0.138,0.168,0.051,1.121-0.298,1.551c-0.053,0.221-0.074,0.831-0.288,0.846
		c-0.206,0.538-0.446,1.136-0.5,1.512c0.047-0.042,0.097,0.025,0.144-0.024c0.581-0.731,1.085-1.094,1.158-1.764
		c0.35-0.666,0.53-1.164,0.864-1.595c0.024-0.157,0.15-0.005,0.182-0.12c0.221-0.319,0.558-0.521,0.663-0.959
		c0.453-0.329,0.647-0.828,1.034-1.098c0.233-0.215,0.428-0.466,0.715-0.56c0.22-0.299,0.539-0.507,0.765-0.764
		c0.107,0.133,0.084-0.102,0.17-0.095l0.079,0.073c-0.045,0.03,0.014,0.085-0.011,0.132l0.059,0.055
		c-0.038,0.181-0.273,0.179-0.357,0.389c-0.112-0.068-0.096,0.234-0.26,0.154c-0.257,0.48-0.81,1.21-0.689,1.461
		c0.059,0.122,0.479-0.187,0.595-0.402c0.443-0.145,0.852-0.366,1.238-0.612c0.41-0.068,0.712-0.489,1.049-0.724
		c0.23-0.125,0.592-0.129,0.704-0.467c0.189-0.138,0.375-0.274,0.552-0.383c0.214-0.233,0.43-0.249,0.611-0.476
		c0.189-0.077,0.344-0.365,0.546-0.465c0.058-0.054,0.189-0.159,0.287-0.119c0.182,0.066,0.239,0.421-0.071,0.71
		c-0.122,0.282-0.084,0.71,0.017,1.019c-0.015,0.523-0.147,0.938-0.149,1.438c0.053,0.121-0.065,0.12-0.09,0.167
		c-0.122,0.433-0.277,0.89-0.443,1.355c-0.27,0.46-0.139,0.973-0.479,1.313c-0.32,0.451-0.176,0.798-0.495,1.487
		c-0.021,0.072,0.06,0.075,0.04,0.146c0.449-0.339,1.095-1.857,1.35-1.82C42.826,43.82,42.632,44.055,42.641,44.206L42.641,44.206z"
		/>
	<path fill="#FFF200" d="M64.826,34.045c-0.066-0.002-0.15-0.014-0.214-0.033c-0.028-0.009-0.054-0.018-0.088-0.031l0.001-0.003
		c-0.064-0.039-0.134-0.04-0.201-0.082c-0.018-0.004-0.037-0.044-0.062-0.031c-0.008-0.02-0.037-0.021-0.045-0.042
		c-0.038-0.019-0.06-0.063-0.103-0.075c-0.007-0.023-0.035-0.047-0.052-0.062c-0.067-0.056-0.149-0.098-0.202-0.172
		c-0.044-0.03-0.08-0.074-0.115-0.129c-0.038-0.033,0.024-0.145-0.038-0.156c-0.004-0.039-0.131-0.002-0.154-0.01
		c-0.041-0.056-0.108-0.076-0.15-0.136c-0.051-0.031-0.008-0.114-0.059-0.143c-0.034-0.08-0.141-0.095-0.191-0.176
		c0.006-0.073-0.085-0.108-0.06-0.183c-0.008-0.039-0.04-0.055-0.069-0.076c0.01-0.028-0.02-0.03-0.033-0.058
		c-0.032-0.033-0.008-0.099-0.073-0.104c-0.006-0.03-0.036-0.051-0.034-0.081c-0.025-0.045-0.057-0.062-0.072-0.111
		c0.001-0.007,0-0.021,0.008-0.027c-0.036-0.044-0.021-0.094-0.079-0.116c-0.034-0.077-0.054-0.152-0.06-0.243
		c-0.029-0.042,0.032-0.087-0.014-0.129c-0.01-0.042,0.05-0.061,0.018-0.094c0.006-0.051,0.022-0.104,0.038-0.142
		c0.039-0.071,0.021-0.179,0.078-0.239c0.013-0.054,0.022-0.108,0.054-0.154c0.008-0.085,0.13-0.127,0.15-0.202
		c0.013-0.027-0.002-0.069-0.027-0.111c0.042-0.052,0.063-0.107,0.103-0.16c0.033-0.039,0.002-0.108,0.063-0.122
		c0.062-0.067,0.105-0.094,0.058-0.087c-0.012-0.036,0.049-0.04,0.013-0.072c0.034-0.013,0.056-0.049,0.062-0.086
		c0.025-0.055,0.164-0.105,0.182-0.166c0.016,0-0.052,0.003-0.052-0.012c-0.01-0.012-0.001-0.038,0.005-0.047
		c0.02-0.004,0.01-0.028,0.022-0.037c0.06-0.001,0.03-0.084,0.084-0.093l-0.003-0.004c0.013-0.025,0.042-0.027,0.051-0.054
		c0.024,0.008,0.003-0.041,0.033-0.036l0.002-0.011c0.024,0.009,0.01-0.028,0.024-0.033c0.017-0.008,0.027-0.046,0.054-0.035
		l0.004-0.011c0.021-0.015,0.046-0.047,0.081-0.041c0.019-0.016,0.002-0.055,0.043-0.048c0.002-0.011,0.032-0.016,0.042-0.026
		c0.028,0.005,0.011-0.032,0.029-0.036c0.02-0.026,0.062-0.015,0.073-0.031l-0.003-0.004c-0.012,0.017,0.031,0.01,0.054,0.011
		c0.034-0.021,0.04-0.075,0.089-0.078l0.001-0.011c0.034,0.024,0.049-0.036,0.079-0.038c0.059-0.052,0.136-0.087,0.197-0.121
		c0.028,0.009,0.076,0.027,0.107,0.041c0.064-0.048,0.112-0.059,0.188-0.098c0.033,0.037,0.054-0.031,0.086-0.002
		c0.041,0,0.098,0.014,0.129,0.049c0.046-0.007,0.079-0.063,0.119-0.063c0.043-0.049,0.096,0.014,0.139-0.02
		c0.036,0.007,0.089-0.017,0.131,0.002c0.046-0.066,0.072,0.047,0.111-0.02c0.154,0.328-0.036-0.089,0.106,0.049
		c0.018-0.012,0.042-0.007,0.052,0.009c0.016,0.034,0.062,0.004,0.081,0.027c0.02,0.015,0.031,0.024,0.038,0.048
		c0.008-0.003,0.009-0.006,0.011-0.014c0.044-0.014,0.06,0.038,0.104,0.039c0.005,0.012,0.029,0.024,0.027,0.016l-0.001,0.004
		c0.093,0.04,0.211,0.011,0.322,0.09l0.013-0.005c0.013,0.031,0.048,0.005,0.057,0.036c0.045,0.023,0.122,0.044,0.175,0.084
		c0.076,0.011,0.015,0.08,0.083,0.093c0.013,0.031,0.122,0.027,0.15,0.04c0.061,0.027,0.053,0.111,0.132,0.111
		c0.025,0.042,0.017,0.017,0.046,0.026c0.021,0.038,0.091,0.021,0.105,0.065c0.012-0.005,0.016-0.005,0.029,0.002
		c0.001,0.034,0.047,0.035,0.061,0.059c0.025-0.002,0.044,0.02,0.043,0.042c-0.009,0.029,0.034,0.025,0.028,0.049
		c0.01-0.006,0.008-0.017,0.012-0.02c0.035,0.029,0.067,0.083,0.116,0.1c-0.012,0.024,0.019,0.037,0.02,0.052
		c0.034-0.002-0.059,0.051-0.038,0.039l0.101,0.029l0.005-0.003c0.007,0.039,0.061,0.052,0.044,0.102
		c0.027,0.013,0.051,0.025,0.053,0.059c-0.018,0.03,0.021,0.026,0.026,0.045c0.004,0.091,0.006,0.142,0.012,0.232
		c-0.017,0.023,0.075,0.06,0.088,0.093c0.033,0.021,0.046,0.046,0.036,0.085c-0.018,0.012,0.003,0.022,0.001,0.034
		c-0.003,0.052,0.048,0.105,0.032,0.167c0.031,0.035,0.011,0.091,0.021,0.134c0.008,0.053,0.003,0.104,0.051,0.144
		c0.014,0.05-0.106,0.108-0.069,0.153c-0.01,0.036,0.098,0.062,0.079,0.099c0.033,0.043,0.011,0.083,0.032,0.132
		c-0.024,0.089-0.057,0.145-0.083,0.23c-0.004,0.018,0.047,0.084,0.018,0.098c-0.011,0.061-0.106,0.135-0.097,0.205l0.067-0.001
		c-0.026,0.078-0.081,0.156-0.092,0.233c-0.027,0.006-0.008,0.043-0.042,0.041c0.023,0.076-0.059,0.098-0.064,0.164
		c-0.038,0.012,0.002,0.056-0.041,0.063c-0.018,0.038-0.265,0.186-0.289,0.218c-0.021,0.03,0.184-0.047,0.173-0.012
		c-0.028-0.006-0.021,0.029-0.044,0.037c-0.128,0.169-0.302,0.283-0.441,0.425c-0.02,0.008-0.042,0.026-0.064,0.044
		c-0.057,0.052-0.172,0.042-0.219,0.094c-0.063,0.003-0.126,0.036-0.189,0.042c-0.058,0.024-0.03,0.036-0.058,0.024
		c-0.038,0.025-0.077,0.012-0.108,0.042c-0.01,0.051-0.081,0.034-0.093,0.08c-0.025-0.023-0.024,0.011-0.044,0.015
		c-0.068,0.006-0.096,0.072-0.167,0.073c-0.019,0.038-0.069-0.009-0.074,0.042c-0.039,0.008-0.072-0.024-0.116-0.032
		c-0.022,0.003,0.01,0.076-0.004,0.073c-0.029-0.006-0.041,0.04-0.075,0.022c-0.04,0.035-0.091-0.02-0.115,0.036
		c-0.017,0.008-0.032-0.003-0.052-0.003c0.006-0.01,0-0.022-0.007-0.023c-0.055-0.003-0.035,0.067-0.091,0.05
		c-0.004,0.021-0.03,0.02-0.045,0.025c-0.071-0.006-0.087,0.081-0.163,0.067c-0.043,0.007-0.109-0.01-0.117,0.052
		c-0.016,0.02-0.043,0.007-0.062,0.011C64.869,34.053,64.846,34.041,64.826,34.045L64.826,34.045z"/>
	<path fill="#0083A5" d="M71.924,43.503c-0.041-0.035-0.103-0.048-0.084-0.109c-0.038,0.044-0.199,0.023-0.155,0.137
		c-0.141-0.003-0.201,0.023-0.277,0.152c0.121,0.026,0.254-0.248,0.4-0.047L71.924,43.503L71.924,43.503z"/>
	<path fill="#0083A5" d="M71.083,43.523l-0.062-0.013c-0.056,0.185,0.048,0.272,0.207,0.253
		C71.227,43.645,71.064,43.624,71.083,43.523L71.083,43.523z"/>
	<polygon fill="#0083A5" points="73.948,39.123 73.988,39.079 74.049,39.131 74.01,39.175 73.948,39.123 	"/>
	<path fill="#0083A5" d="M73.1,42.492l-0.095,0.229l0.337-0.138C73.28,42.531,73.198,42.462,73.1,42.492L73.1,42.492z"/>
	<path fill="#0083A5" d="M72.849,42.86l-0.324-0.122l-0.13,0.353c0.059-0.027,0.116-0.093,0.197-0.062l0.045,0.193
		C72.633,43.063,72.607,42.848,72.849,42.86L72.849,42.86z"/>
	<path fill="#0083A5" d="M74.207,40.5c-0.176,0.198-0.522-0.018-0.804-0.064c0.042,0.034-0.018,0.101-0.037,0.123
		c0.221,0.034-0.014,0.259,0.226,0.192c0.098-0.071,0.136-0.195,0.256-0.169c0.141,0.003,0.089,0.306,0.305,0.142l-0.022-0.057
		l0.121-0.014C74.29,40.608,74.207,40.539,74.207,40.5L74.207,40.5z"/>
	<path fill="#0083A5" d="M72.734,41.644c-0.04-0.035-0.042-0.075-0.022-0.097c-0.079,0.049-0.16,0.019-0.217,0.125
		C72.575,41.663,72.678,41.75,72.734,41.644L72.734,41.644z"/>
	<path fill="#0083A5" d="M71.483,42.821c-0.081-0.069-0.223-0.112-0.341-0.019l-0.194,0.221c0.176-0.16,0.262,0.029,0.461,0.005
		L71.483,42.821L71.483,42.821z"/>
	<path fill="#0083A5" d="M73.35,40.699c-0.041-0.074-0.278,0.073-0.143-0.121c-0.084-0.11-0.142-0.042-0.221,0.006
		C72.933,40.808,73.273,40.788,73.35,40.699L73.35,40.699z"/>
	<path fill="#0083A5" d="M73.861,39.589c-0.084-0.109-0.122-0.065-0.201-0.016c-0.039,0.044-0.077,0.088-0.077,0.127
		C73.707,39.805,73.739,39.563,73.861,39.589L73.861,39.589z"/>
	<path fill="#FFFFFF" d="M75.349,46.701l-0.059,0.027l0.024,0.176C75.332,46.841,75.43,46.771,75.349,46.701L75.349,46.701z"/>
	<path fill="#FFFFFF" d="M75.62,46.392c-0.244-0.13,0.053-0.304,0.11-0.41C76.05,45.984,75.802,46.43,75.62,46.392L75.62,46.392z"/>
	<path fill="#FFFFFF" d="M75.607,45.918c-0.16,0.019-0.206-0.214-0.385-0.133l-0.012,0.259c-0.133,0.273-0.376,0.222-0.531,0.4
		c-0.001-0.079-0.063-0.131,0.035-0.202c0.079-0.05,0.018-0.101-0.023-0.137c-0.062-0.013-0.1,0.032-0.119,0.055l-0.062-0.054
		c0.314-0.235-0.224-0.111-0.11-0.362c0.06,0.012,0.099-0.071,0.137-0.115l0.083,0.069l-0.04,0.044
		c-0.018,0.062,0.063,0.092,0.104,0.126l-0.078,0.089c-0.018,0.061,0.023,0.096,0.043,0.114c0.14-0.036,0.275-0.191,0.293-0.332
		c-0.021,0.023-0.061,0.027-0.102-0.008l0.177-0.121c0.231-0.344,0.406,0.151,0.644,0.083
		C75.704,45.768,75.706,45.886,75.607,45.918L75.607,45.918z"/>
	<path fill="#FFFFFF" d="M74.33,46.841l-0.357,0.082c-0.087-0.228-0.36,0.081-0.447-0.186c0.036-0.163,0.115-0.212,0.253-0.288
		c0.04-0.005,0.022,0.057,0.022,0.057c0.103,0.088,0.261,0.028,0.258-0.09C74.279,46.45,74.366,46.678,74.33,46.841L74.33,46.841z"
		/>
	<polygon fill="#FFFFFF" points="74.716,45.547 74.734,45.525 74.797,45.577 74.777,45.599 74.716,45.547 	"/>
	<polygon fill="#FFFFFF" points="75.996,43.97 76.015,43.947 75.953,43.895 75.934,43.917 75.996,43.97 	"/>
	<path fill="#FFFFFF" d="M74.278,45.678C74,45.75,74.112,45.46,74.089,45.324l0.179-0.041
		C74.252,45.423,74.417,45.602,74.278,45.678L74.278,45.678z"/>
	<path fill="#FFFFFF" d="M74.375,44.794c-0.071,0.365-0.332,0.336-0.525,0.597c-0.097,0.111-0.201-0.017-0.282-0.086
		c-0.141,0.037-0.3,0.016-0.316,0.196c0.081,0.03,0.161,0.021,0.241,0.012c0.288,0.282-0.17,0.396-0.222,0.661
		c-0.183-0.039-0.227-0.192-0.387-0.212c-0.017,0.14,0.106,0.245,0.009,0.355c0.055-0.225-0.204-0.135-0.228-0.271
		c0.015-0.22,0.116-0.133,0.296-0.174c0.078-0.089,0.156-0.137,0.135-0.234c-0.247-0.208-0.336,0.218-0.558,0.185
		c-0.043-0.153,0.214-0.282,0.089-0.427c0.156-0.137,0.394-0.284,0.51-0.456c0.281,0.046,0.594-0.269,0.859-0.042
		c0.019-0.061,0.118-0.093,0.076-0.167c-0.08-0.031-0.166-0.218-0.306-0.182c-0.039,0.004-0.085-0.149-0.023-0.097
		c0.249,0.287,0.574-0.286,0.742,0.012C74.568,44.574,74.572,44.731,74.375,44.794L74.375,44.794z"/>
	<path fill="#FFFFFF" d="M74.738,44.177l0.016-0.142c-0.041-0.074-0.12-0.024-0.182-0.037c-0.505-0.199,0.274-0.271,0.309-0.512
		c0.12,0.024,0.22,0.033,0.186,0.195C74.788,43.755,74.895,44.04,74.738,44.177L74.738,44.177z"/>
	<path fill="#FFFFFF" d="M75.721,42.733l-0.143-0.122l0.238-0.068C75.818,42.623,75.799,42.684,75.721,42.733L75.721,42.733z"/>
	<path fill="#FFFFFF" d="M74.952,43.161c0.059-0.026,0.017-0.101,0.035-0.163l-0.3,0.055l0.292-0.332
		c0.003,0.12,0.146,0.201,0.284,0.125C75.31,43.079,75.111,43.182,74.952,43.161L74.952,43.161z"/>
	<path fill="#FFFFFF" d="M72.041,16.096l0.263-0.262c0.027,0.326,0.222,0.782,0.454,0.846
		C72.513,16.747,72.068,16.421,72.041,16.096L72.041,16.096z"/>
	<polygon fill="#FFFFFF" points="70.805,14.73 70.685,14.73 70.703,14.535 70.822,14.535 70.805,14.73 	"/>
	<path fill="#FFFFFF" d="M71.177,12.708l0.237-0.001c0.201,0.39-0.147,0.914-0.51,0.979C70.281,13.362,71.02,13.1,71.177,12.708
		L71.177,12.708z"/>
	<path fill="#FFFFFF" d="M69.941,13.934c-0.243-0.13,0.052-0.304,0.109-0.41C70.372,13.526,70.123,13.972,69.941,13.934
		L69.941,13.934z"/>
	<path fill="#FFFFFF" d="M72.98,14.816c-0.18-0.211,0.039-0.494,0.081-0.667C73.299,14.152,73.115,14.877,72.98,14.816L72.98,14.816
		z"/>
	<path fill="#FFFFFF" d="M72.87,15.924l-0.145-0.121l0.239-0.069C72.967,15.814,72.948,15.875,72.87,15.924L72.87,15.924z"/>
	<path fill="#FFFFFF" d="M70.006,13.311l-0.144-0.123l0.239-0.067C70.104,13.2,70.085,13.262,70.006,13.311L70.006,13.311z"/>
	<path fill="#FFFFFF" d="M73.069,15.422L72.928,15.3l0.237-0.067C73.167,15.312,73.148,15.373,73.069,15.422L73.069,15.422z"/>
	<path fill="#FFFFFF" d="M69.236,13.738c0.059-0.027,0.018-0.101,0.035-0.163l-0.298,0.055l0.29-0.332
		c0.004,0.119,0.146,0.201,0.284,0.125C69.595,13.657,69.397,13.759,69.236,13.738L69.236,13.738z"/>
	<path fill="#FFFFFF" d="M72.323,14.036c0.104-0.143,0.112-0.362-0.073-0.744c0.251-0.131,0.593-0.588,0.857-0.263
		c0.089,0.325-0.093,0.978-0.51,0.979C72.512,14.054,72.406,14.006,72.323,14.036L72.323,14.036z"/>
	<path fill="#FFFFFF" d="M72.323,14.036c-0.034,0.012-0.063,0.038-0.087,0.088C72.27,14.098,72.3,14.068,72.323,14.036
		L72.323,14.036z"/>
	<path fill="#FFFFFF" d="M73.119,19.092c-0.105,1.108-0.525,1.761-0.632,2.87c-0.2,0.848-0.892,1.241-0.986,2.219
		c-0.253,0.783-1.415,1.112-1.449,2.089c-0.983,0.328-1.431,1.894-2.627,1.962c-0.268,0.267-0.646,0.445-1.039,0.538
		c0.085-0.229,0.166-0.455,0.253-0.667c0.106-0.072,0.065-0.317,0.167-0.394c-0.006-0.158,0.087-0.271,0.158-0.388l0.033-0.082
		c0.157,0-0.009-0.188,0.102-0.271c0.045-0.128,0.129-0.22,0.104-0.368c0.072-0.199,0.166-0.449,0.234-0.654
		c0.117-0.077,0.077-0.25,0.16-0.357c0.033-0.082,0.044-0.24,0.122-0.281c0.067-0.205,0.192-0.317,0.237-0.526
		c0.004-0.066-0.04-0.092-0.045-0.138c-0.044,0.087-0.105,0.144-0.156,0.209c-0.06,0.128-0.168,0.144-0.209,0.302
		c-0.098,0.066-0.137,0.281-0.228,0.368c-0.071,0.312-0.301,0.277-0.373,0.573c-0.243,0.328-0.386,0.813-0.622,1.146l-0.007-0.006
		c-0.025,0.046-0.045,0.113-0.086,0.118c-0.075,0.185-0.194,0.287-0.27,0.471c-0.074,0.143-0.106,0.28-0.203,0.362
		c0,0.006-0.002,0.01-0.004,0.015c-0.173-0.136-0.359-0.229-0.438-0.29c-0.883-0.716-0.726-2.346-0.626-3.389
		c0.366-0.718-0.069-1.76,0.695-2.283c-0.141-0.391,0.373-0.783-0.018-1.043c0.421-1.305,1.329-2.089,1.639-3.459
		c0.684-0.914,0.911-1.436,1.926-2.09c-0.101-0.196-0.266-0.326-0.062-0.587c-0.165-0.13-0.307-0.52-0.098-0.847l1.547-0.004
		c-0.328,0.327,0.235,0.651,0.342,0.781l0.13-0.13c0.108,0.13,0.202,0.39,0.387,0.325c-0.155-0.875,0.693-0.783,1.06-1.062
		c-0.003,0.005-0.006,0.01-0.008,0.016c0.046,0.13,0.172,0.065,0.23,0.065c0.088,0.326,0.045,0.782,0.007,1.173
		c-0.694-0.195-0.664,0.718-0.998,1.11c-0.21,1.565,1.665-0.004,1.777,1.299C72.56,18.115,72.92,18.702,73.119,19.092L73.119,19.092
		z"/>
	<path fill="#FFFFFF" d="M84.611,28.893c-0.113,0.89-1.043,0.918-1.206,1.766c-0.389,0.234-0.776,0.468-1.241,0.483
		c-0.197,0.36-0.6-0.025-0.803,0.291c-0.967,0.341-1.833,0.5-2.737,0.972c-0.852-0.018-1.211,0.393-1.96,0.504
		c-0.373,0.322-1.183,0.037-1.528,0.536l-0.05-0.042c-0.347,0.499-1.333,0.173-1.764,0.409c-0.422-0.253-0.999,0.121-1.353-0.224
		c-0.818-0.063-1.74-0.256-2.312-0.903c-0.324-0.282-0.424-0.594-0.464-0.919c0.062-0.006,0.122-0.013,0.18-0.02
		c0.477-0.031,0.98-0.074,1.431-0.134c0.089,0.023,0.178-0.029,0.284-0.026c0.127-0.078,0.365-0.052,0.53-0.094
		c0.048,0.037,0.082-0.021,0.136-0.016c0.021,0,0.034,0.012,0.035,0.018c0.097-0.07,0.201,0.064,0.265-0.012
		c0.16,0.002,0.312-0.051,0.495-0.043c0.21-0.024,0.35-0.089,0.561-0.107c0.066-0.051,0.171,0.008,0.226-0.055
		c0.154-0.042,0.334-0.051,0.488-0.093c-0.081-0.042-0.224-0.069-0.334-0.098c-0.212,0.005-0.388-0.028-0.591-0.029
		c-0.07,0.02-0.162,0.06-0.253,0.024c-0.43,0.116-0.883,0.009-1.356,0.052l-0.039,0.019c-0.34,0.015-0.643,0.065-0.941,0.055
		c-0.062,0.014-0.156,0.028-0.213,0.005c-0.11,0.046-0.221,0.018-0.352,0.008c-0.035,0.044-0.199,0.018-0.272,0.025
		c-0.045-0.012-0.09,0.046-0.116,0.009c-0.021,0.001-0.064-0.005-0.073,0.014c-0.033,0.001-0.077,0.006-0.121,0.01
		c-0.009-0.161-0.022-0.322-0.059-0.483c0.269-1.249,1.164-1.765,2.046-2.369c0.551-0.282,1.241-0.215,1.792-0.764
		c0.958-0.119,1.741-0.542,2.593-0.79c0.354,0.344,0.601-0.241,0.938,0.015c0.423-0.279,0.909-0.161,1.353-0.308
		c0.84-0.07,1.46,0.088,2.179,0.065c0.296-0.009,0.612,0.114,0.873,0.15c0.726,0.82,1.691,1.278,2.636,1.337
		C83.78,28.741,84.669,28.182,84.611,28.893L84.611,28.893z"/>
	<path fill="#FFFFFF" d="M64.222,36.045c0.018-0.063,0.042-0.119,0.068-0.172c0.594,0.442,0.263,1.26,0.689,1.837
		c-0.182,0.656,0.123,1.306,0.008,1.969c0.108,0.2-0.248,0.65,0.06,0.869c-0.375,0.718,0.004,1.457-0.371,2.173
		c0.174,0.207-0.477,0.601-0.075,0.855c-0.139,0.417-0.46,0.763-0.541,1.322c-0.508,0.489-0.412,1.037-0.603,1.612
		c-0.589,0.104-0.164,0.603-0.753,0.707c0.072,0.304-0.38,0.205-0.398,0.473c-0.377-0.011-0.732,0.225-1.051,0.139
		c-0.389,0.338-0.848-0.058-1.234,0.066c0.118-0.15-0.168-0.125-0.218-0.184l-0.084,0.046c-0.469-0.263-1.093-0.783-0.921-1.306
		c-0.3-0.137,0.172-0.306-0.104-0.415l0.084-0.045c0.044-0.238-0.358-0.277-0.356-0.494c0.408-0.606-0.09-1.195,0.251-1.808
		c-0.241-0.213,0.493-0.653-0.06-0.869c0.342-0.613,0.195-1.221,0.612-1.746c0.732-1.167,1.088-2.561,2.071-3.65
		c0.847-0.67,1.533-1.384,2.053-2.223c0.23-0.111,0.363-0.111,0.45-0.053c-0.016,0.062-0.034,0.123-0.051,0.183
		c-0.099,0.083-0.034,0.326-0.127,0.414c0.021,0.159-0.059,0.281-0.116,0.408l-0.026,0.086c-0.154,0.016,0.028,0.189-0.074,0.284
		c-0.03,0.133-0.105,0.235-0.064,0.381c-0.053,0.208-0.122,0.47-0.167,0.684c-0.108,0.09-0.054,0.26-0.125,0.377
		c-0.024,0.086-0.019,0.246-0.093,0.296c-0.046,0.212-0.158,0.339-0.183,0.554c0.003,0.068,0.05,0.089,0.059,0.134
		c0.033-0.092,0.09-0.155,0.132-0.227c0.048-0.136,0.152-0.162,0.176-0.326c0.091-0.076,0.109-0.297,0.19-0.394
		c0.04-0.322,0.269-0.309,0.312-0.616c0.205-0.354,0.299-0.858,0.5-1.218l0.006,0.005C64.168,36.124,64.181,36.055,64.222,36.045
		L64.222,36.045z"/>
	<path fill="#FFFFFF" d="M61.646,31.909c-0.086,0.108-0.158,0.234-0.181,0.419c-0.352,0.627-0.958,1.276-1.72,1.386
		c-0.036,0.128-0.245,0.198-0.195,0.333c-0.735-0.193-0.811,0.852-1.593,0.565c-0.493,0.353-1.216,0.378-1.583,0.741
		c-0.429-0.08-0.765,0.022-1.095,0.258c-0.772-0.111-1.433,0.359-2.079,0.172c-0.496,0.308-1.051,0.305-1.645,0.385
		c-0.049-0.135-0.176-0.102-0.304-0.112c-0.415,0.227-0.851,0.015-1.266,0.242c-0.553,0.041-1.61,0.212-2.058-0.22
		c-0.216-0.062-0.482-0.26-0.779-0.241c-0.412-0.561-1.54-0.964-1.249-1.946c-0.228-0.283-0.376-0.689-0.396-1.085
		c0.286-0.238,0.438-0.619,0.505-0.964c0.216,0.062,0.034-0.173,0.158-0.249c0.613-0.517,1.156-0.733,1.86-1.155
		c0.6,0.051,1.005-0.353,1.512-0.44c0.246-0.198,0.557,0.047,0.895-0.011c0.44-0.576,1.137-0.297,1.678-0.558
		c0.659,0.407,1.048-0.348,1.7-0.073c0.541-0.261,1.285,0.109,1.784-0.155c0.487,0.392,1.016-0.132,1.421,0.297
		c0.351,0.047,0.763,0.174,1.179,0.275c0.323-0.025,0.671-0.082,0.866-0.21c0,0-0.95-0.335-1.024-0.896
		c-0.03-0.089-0.049-0.191-0.055-0.314c-0.661-0.407-1.299-1.25-1.888-1.913c-0.327-0.597-0.746-1.29-1.079-1.976
		c-0.408-0.472-0.321-1.296-1.063-1.667c-0.081-0.751-0.58-1.364-0.748-2.167c-0.326-0.553-0.607-1.059-0.68-1.634
		c-0.012-0.22-0.191-0.411-0.326-0.554c-0.041-0.835-0.176-1.81,0.303-2.47c-0.354-0.25,0.191-0.421-0.162-0.671
		c0.221,0.15,0.336-0.103,0.462-0.135c0.073-0.257-0.324-0.51-0.073-0.619c1.107,0.007,1.551,1.183,2.621,1.275
		c0.153,0.495,0.752,0.546,1.187,0.714c0.441,0.301,0.628,0.623,1.065,0.835c0.012,0.22,0.112,0.535,0.331,0.642l0.214,0.019
		c0.005,0.088-0.036,0.128,0.051,0.179l0.086,0.008c-0.028,0.26,0.107,0.447,0.323,0.465c0.398,1.173,1.408,1.741,1.682,2.947
		c0.23,0.326,0.673,0.67,0.52,1.008c0.141,0.274,0.285,0.594,0.509,0.788c0.016,0.308,0.191,0.41,0.33,0.641
		c0.213,0.851,0.255,1.687,0.634,2.419c0.058,0.312,0.081,0.751-0.125,0.91c0.063,0.463,0.168,1.007-0.139,1.259
		c-0.037-0.045-0.073-0.091-0.11-0.133c-0.319-0.422-0.668-0.865-0.998-1.251c-0.034-0.09-0.134-0.15-0.196-0.249
		c-0.145-0.087-0.271-0.313-0.407-0.447c0-0.057-0.069-0.067-0.099-0.117c-0.013-0.02-0.011-0.036-0.006-0.039
		c-0.118-0.062-0.071-0.208-0.174-0.236c-0.098-0.147-0.237-0.266-0.344-0.435c-0.149-0.182-0.291-0.284-0.437-0.469
		c-0.085-0.042-0.099-0.16-0.187-0.186c-0.129-0.125-0.25-0.284-0.38-0.409c0.016,0.09,0.08,0.23,0.124,0.342
		c0.137,0.191,0.218,0.363,0.342,0.548c0.062,0.058,0.15,0.125,0.177,0.221c0.364,0.347,0.555,0.801,0.884,1.215l0.042,0.029
		c0.221,0.303,0.451,0.559,0.627,0.836c0.05,0.05,0.121,0.13,0.136,0.191c0.107,0.083,0.152,0.195,0.225,0.315
		c0.059,0.017,0.138,0.176,0.19,0.24c0.018,0.044,0.094,0.064,0.08,0.102c0.013,0.02,0.035,0.061,0.056,0.062
		c0.051,0.07,0.14,0.169,0.196,0.266c-0.173,0.098-0.399,0.128-0.436,0.419c-0.096,0.649-2.357-0.246-0.891,0.931
		c0.101,0.315,0.561,0.135,0.785,0.374l0.465-0.092c0.035,0.127-0.03,0.333,0.05,0.453c-0.042,0.009-0.084,0.018-0.127,0.027
		c-0.23,0.006-0.443,0.088-0.69,0.079c-0.214-0.05-0.477,0.085-0.643-0.063c-0.048,0.127-0.263,0.047-0.378,0.095
		c-0.28,0.002-0.492,0.113-0.772,0.115c-0.229,0.139-0.576,0.017-0.839,0.124c-0.067-0.125-0.114,0.032-0.197,0.038
		c-0.28-0.129-0.375,0.184-0.64,0.069c-0.081,0.095-0.246,0.123-0.394,0.152c-0.164,0.19-0.459,0.205-0.655,0.302l0.247,0.01
		c0.101,0.187,0.245-0.093,0.363,0.094c0.395-0.004,0.74-0.074,1.118-0.066c0.147-0.088,0.428-0.075,0.607-0.072
		c0.298,0.029,0.512,0.006,0.791-0.025c0.347,0.093,0.607-0.131,0.971-0.081c0.148,0.043,0.28,0.057,0.396-0.02
		C61.124,31.896,61.396,31.916,61.646,31.909L61.646,31.909z"/>
	<polygon fill="#FFFFFF" points="75.618,44.847 75.657,44.802 75.719,44.854 75.681,44.898 75.618,44.847 	"/>
	<path fill="#FFFFFF" d="M76.111,45.303c-0.093,0.229-0.237,0.108-0.396,0.166c-0.062-0.052-0.084-0.109-0.124-0.144
		c-0.143-0.042-0.385-0.132-0.44,0.052c-0.141-0.042-0.146-0.202-0.168-0.297c-0.118,0.053-0.217,0.085-0.274,0.19
		c-0.106-0.204-0.22,0.086-0.322-0.002c0.04-0.043,0.077-0.127,0.157-0.137l-0.023-0.135c0.242,0.05,0.19-0.379,0.453-0.271
		c-0.104-0.126-0.207-0.293-0.133-0.46c0.081,0.029,0.16-0.019,0.198-0.103c0.044-0.58,0.596-0.149,0.744-0.642l0.205,0.174
		c-0.178,0.119-0.312,0.314-0.533,0.32c-0.056,0.145-0.211,0.361-0.026,0.479c0.117-0.053,0.295-0.213,0.271-0.309l0.199-0.063
		c0.081,0.03,0.062,0.092,0.064,0.171C75.271,44.629,76.083,44.97,76.111,45.303L76.111,45.303z"/>
	<path fill="#FFFFFF" d="M75.665,41.412c-0.012,0.298-0.172,0.318-0.39,0.442c-0.402-0.071-0.468,0.451-0.683,0.655
		c-0.062-0.052-0.122-0.065-0.162-0.1l0.097-0.11c0.073-0.246-0.088-0.267-0.25-0.327c-0.098,0.071-0.014,0.22-0.013,0.259
		c-0.237,0.147-0.461-0.005-0.407-0.229c0.07-0.365,0.394-0.284,0.614-0.251c-0.045-0.192,0.189-0.379,0.145-0.611l-0.141,0.035
		c-0.201-0.055-0.416,0.109-0.615,0.211c-0.068-0.289-0.318,0.039-0.481-0.022c0.084,0.109-0.07,0.365,0.15,0.399l0.255-0.208
		c0.084,0.108-0.095,0.189-0.151,0.295c-0.062-0.092-0.142-0.042-0.223-0.073c-0.057,0.146-0.3,0.016-0.273,0.231
		c0.083,0.148,0.139-0.076,0.238-0.068c0.229,0.31,0.654,0.517,0.883,0.788c-0.176,0.159-0.088,0.426-0.163,0.633
		c0.12-0.014,0.157-0.137,0.255-0.208c0.021,0.018,0.081,0.031,0.063,0.092c-0.322-0.042-0.109,0.41-0.431,0.369
		c0.021,0.097,0.087,0.267-0.052,0.343l-0.145-0.161c-0.161-0.06-0.197,0.141-0.313,0.235c0.021,0.056-0.037,0.163,0.065,0.21
		c-0.016,0.18-0.234,0.225-0.313,0.274c-0.253,0.288-0.425-0.128-0.599,0.11c-0.023-0.135,0.114-0.251,0.13-0.391
		c0.136-0.155,0.168,0.258,0.239-0.029c-0.082-0.069-0.183-0.117-0.305-0.142c0.005,0.158-0.375,0.143-0.191,0.3
		c-0.118,0.093,0.031,0.412-0.249,0.406c-0.133,0.312-0.343-0.059-0.577,0.167c-0.041-0.035-0.102-0.047-0.083-0.11l-0.14,0.037
		c-0.146-0.241-0.046-0.192,0.069-0.444c-0.2,0.063-0.33-0.278-0.523-0.057c-0.107-0.245-0.483-0.062-0.473-0.4
		c0.214-0.283-0.191-0.434-0.199-0.71c-0.087-0.228-0.466-0.203-0.483-0.102c-0.001-0.04,0.018-0.101-0.024-0.136
		c-0.466-0.203-0.559-0.667-0.67-1.069c-0.319,0.038-0.194-0.473-0.572-0.409c-0.209-0.292-0.5-0.654-0.606-0.899
		c-0.32-0.002-0.255-0.525-0.556-0.549l-1.224-2.968c-0.256-0.564-0.029-1.066-0.024-1.641c0.117-0.094,0.214-0.205,0.229-0.384
		c0.137-0.155,0.229-0.393,0.39-0.501c0.101,0.096,0.2,0.167,0.283,0.323c0.187,0.354,0.394,0.552,0.609,0.895
		c0.054,0.137,0.225,0.175,0.221,0.334c0.188,0.354,0.541,0.546,0.593,0.89c0.016,0.005,0.052,0.062,0.066,0.019
		c0.262,0.412,0.637,0.704,0.912,1.072l0.128,0.223c0.191,0.271,0.371,0.452,0.597,0.628c0.087,0.146,0.253,0.164,0.345,0.331
		c-0.128-0.196-0.158-0.439-0.308-0.585c-0.158-0.439-0.522-0.822-0.796-1.219c-0.245-0.331-0.411-0.735-0.642-1.083
		c-0.12-0.08-0.176-0.265-0.253-0.371c-0.231-0.271-0.265-0.563-0.5-0.854c-0.043-0.2-0.272-0.395-0.363-0.563
		c-0.037-0.139-0.154-0.256-0.244-0.384c0.159-0.047,0.345-0.04,0.498-0.167c0.194-0.221,0.481,0.021,0.66-0.019
		c0.293,0.402,0.767,0.188,1.057,0.509c0.318-0.077,0.45,0.383,0.751,0.367c0.089,0.268,0.531,0.334,0.678,0.575
		c0.625,0.144,1.232,0.39,1.688,0.891c0.18-0.041,0.344,0.099,0.288,0.283c0.772,0.385,0.958,1.314,1.494,1.885
		c-0.035,0.163-0.293,0.253-0.286,0.49c0.217-0.085,0.421,0.01,0.506,0.198c-0.153,0.257-0.111,0.331-0.162,0.634
		c-0.06,0.066-0.239,0.068-0.216,0.204c0.166,0.218,0.338-0.099,0.518-0.101c0.303,0.064,0.03,0.374,0.292,0.402
		c0.064,0.171,0.051,0.39-0.165,0.555c-0.158,0.098-0.241-0.011-0.382-0.054c-0.212,0.322,0.306,0.182,0.233,0.468l-0.062-0.013
		c-0.097,0.111,0.063,0.131,0.025,0.215c-0.038,0.044-0.18,0.001-0.155,0.137c0.02,0.017,0.061,0.053,0.12,0.025l-0.021-0.056
		c0.116-0.132,0.164,0.1,0.263,0.068c-0.051-0.391,0.313-0.235,0.489-0.435L75.665,41.412L75.665,41.412z"/>
	<path fill="#FFFFFF" d="M70.25,15.171l0.035,0.021c0.033-0.296,0.28-0.396,0.182-0.366C70.456,15.05,70.264,15.008,70.25,15.171
		L70.25,15.171z"/>
	<path fill="#005BAA" d="M75.436,44.769c-0.18,0.041-0.104-0.206-0.306-0.182l-0.077,0.088l0.286,0.205L75.436,44.769L75.436,44.769
		z"/>
	<path fill="#005BAA" d="M69.291,15.409l-0.068,0.321c0.044,0.051,0.12-0.059,0.176-0.102l-0.272,0.584l-0.173-0.019
		C69.177,16.217,69.21,15.673,69.291,15.409L69.291,15.409z"/>
	<path fill="#005BAA" d="M69.854,14.968c0.035,0.332,0.168-0.11,0.228-0.065c-0.062,0.207-0.102,0.248-0.184,0.239
		c0,0.188-0.095,0.15-0.131,0.221c0.021-0.533-0.004-0.122-0.018-0.181L69.854,14.968L69.854,14.968z"/>
	<path fill="#005BAA" d="M70.045,16.369c0.151-0.036,0.203,0.27,0.345,0.014l-0.16,0.355c-0.105,0.15-0.22,0.081-0.275-0.033
		L70.045,16.369L70.045,16.369z"/>
</g>
</svg>
