<?xml version="1.0" encoding="utf-8"?>
<!-- Generator: Adobe Illustrator 16.0.0, SVG Export Plug-In . SVG Version: 6.00 Build 0)  -->
<!DOCTYPE svg PUBLIC "-//W3C//DTD SVG 1.1//EN" "http://www.w3.org/Graphics/SVG/1.1/DTD/svg11.dtd">
<svg version="1.1" id="Layer_1" xmlns="http://www.w3.org/2000/svg" xmlns:xlink="http://www.w3.org/1999/xlink" x="0px" y="0px"
	 width="100px" height="100px" viewBox="0 0 100 100" enable-background="new 0 0 100 100" xml:space="preserve">
<g>
	<g>
		<defs>
			<rect id="SVGID_1_" x="0.105" y="14.667" width="99.808" height="70.667"/>
		</defs>
		<clipPath id="SVGID_2_">
			<use xlink:href="#SVGID_1_"  overflow="visible"/>
		</clipPath>
		<path clip-path="url(#SVGID_2_)" fill="#63B2E7" d="M22.678,76.682c0,4.271,2.737,4.509,3.29,4.509
			c4.227,0.226,4.805,0.562,4.805,1.484c0,2.2,0,2.659-1.013,2.659c-4.567,0-9.369-0.232-14.389-0.232
			c-4.903,0-9.68,0.232-14.255,0.232c-1.028,0-1.028-0.459-1.028-2.659c0-0.923,0.57-1.259,4.798-1.484
			c0.561,0,3.296-0.238,3.296-4.509V49.95c0-7.138-1.583-7.946-6.826-9.096c-1.04-0.227-1.15-0.707-1.15-1.729
			c0-0.594,0.241-1.285,0.575-1.388c15.972-2.882,20.527-7.377,21.1-7.377c0.107,0,0.914,0.463,0.914,1.042
			c0,2.879-0.336,6.111-0.336,9.099c6.613-4.609,13.346-8.056,20.986-8.056c5.815,0,10.385,2.755,12.663,8.183
			c5.703-4.271,12.313-8.183,20.089-8.183c8.321,0,14.488,5.866,14.488,14.976v29.262c0,4.271,2.736,4.509,3.305,4.509
			c4.232,0.226,5.926,0.562,5.926,1.484c0,2.2,0,2.659-2.161,2.659c-4.569,0-9.352-0.232-14.369-0.232
			c-4.908,0-9.707,0.232-13.115,0.232c-1.045,0-1.045-0.459-1.045-2.659c0-0.923,0.584-1.259,3.655-1.484
			c0.565,0,3.316-0.238,3.316-4.509v-25.58c0-3.682-1.838-10.475-9.585-10.475c-5.372,0-9.59,3.788-9.706,4.143
			c-0.208,1.27-0.208,1.852-0.208,2.65v29.262c0,4.271,2.708,4.509,3.298,4.509c4.218,0.226,4.802,0.562,4.802,1.484
			c0,2.2,0,2.659-1.04,2.659c-4.565,0-9.352-0.232-14.375-0.232c-4.907,0-9.696,0.232-13.128,0.232
			c-1.027,0-1.027-0.459-1.027-2.659c0-0.923,0.578-1.259,3.649-1.484c0.584,0,3.313-0.238,3.313-4.509v-25.58
			c0-3.682-1.824-10.475-9.593-10.475c-5.353,0-9.572,3.788-9.679,4.143c-0.237,1.27-0.237,1.852-0.237,2.65V76.682L22.678,76.682z"
			/>
		<path clip-path="url(#SVGID_2_)" fill="#FF993D" d="M48.842,18.934c-0.123,0.626-0.268,1.285-0.43,1.916
			c-0.373,1.323-0.901,2.532-1.65,3.597c-0.203,0.313-0.492,0.532-0.825,0.68c-0.339,0.117-0.672,0.206-1.011,0.215
			c-0.661,0.063-1.33-0.425-1.81-0.671c-0.905-0.464-0.755-2.202-0.544-2.969c0.205-0.776,0.611-1.458,1.165-2.082
			c0.04-0.061,0.091-0.113,0.139-0.149c0.634-0.737,1.358-1.292,2.165-1.679c0.883-0.438,1.762-0.745,2.665-0.977l0.416,0.058
			C49.067,17.546,48.944,18.256,48.842,18.934L48.842,18.934z M36.062,38.477c-0.021,1.424-0.405,2.77-1.094,4.096
			c-0.438,0.636-0.557,1.022-1.562,1.449c-0.428,0.014-1.203-0.232-1.693-0.446c-0.338-0.147-1.065-0.841-1.312-1.105
			c-0.758-0.831-1.072-2.052-1.208-2.776c-0.222-1.183-0.433-3.718-0.457-4.46c-0.049-0.748,0.538-4.424,0.914-5.182
			c0.409-0.901,0.923-1.765,1.505-2.576c0.721-1.001,1.585-1.959,2.557-2.839c0.483,0.773,0.88,1.591,1.238,2.436
			c0.195,0.449,0.354,0.941,0.516,1.436C35.907,29.872,36.105,37.057,36.062,38.477L36.062,38.477z M31.108,22.889
			c0.113-0.625,0.323-1.086,0.28-1.688l0.053-0.372l0.052-0.09l0.055,0.081l1.168,1.818c-0.249,0.37-0.579,0.729-0.871,1.05
			c-0.316,0.334-0.628,0.689-0.937,1.021C30.925,24.145,30.999,23.518,31.108,22.889L31.108,22.889z M62.004,19.906
			c-0.009-0.342-0.226-0.593-0.617-0.737c-0.383,0.395-0.716,0.798-0.984,1.275c-0.287,0.467-0.596,0.93-0.913,1.394
			c-0.324,0.458-0.74,0.853-1.269,1.18c-0.98,0.303-1.98-1.073-2.717-1.922c-0.706-0.865-1.33-1.757-1.94-2.674
			c-0.037-0.055-0.071-0.095-0.096-0.15c-0.626-1.024-1.091-1.777-1.803-2.613l-0.587-0.92c-0.172-0.004-1.199-0.06-1.529-0.049
			c-0.317-0.011-0.467-0.044-0.907-0.001c-1.073,0.203-1.929,0.475-2.823,0.86c-0.888,0.388-1.77,0.786-2.664,1.203
			c-0.904,0.313-1.774,0.645-2.665,1.039c-0.89,0.386-1.502,0.688-2.265,1.192c0,0-2.228,1.245-2.298,1.31
			c-0.458,0.23-1.002,0.562-1.488,0.799c-0.116-0.17-0.257-0.368-0.377-0.546c-0.469-0.69-0.879-1.429-1.251-2.214
			c-0.456-0.996-1.012-1.917-1.62-2.787c-0.31-0.206-0.608-0.225-0.886-0.12c-0.287,0.114-0.575,0.25-0.814,0.432
			c-0.156,0.585,0.139,1.78,0.083,2.674c-0.075,0.856-0.167,1.701-0.267,2.526c-0.021,0.009-0.021,0.009-0.012,0.03
			c-0.064,0.626-0.156,1.244-0.278,1.882c-0.116,0.596-0.304,1.121-0.55,1.547c-0.269,0.327-0.517,0.703-0.773,1.104
			c-0.238,0.423-0.547,0.748-0.898,1.032c-0.339,0.276-0.749,0.397-1.214,0.315c-0.874-0.669-1.442-1.518-1.723-2.543
			c-0.26-0.871-0.379-1.794-0.379-2.723c-0.014-0.128-0.177-1.664-0.149-2.043c0.055-0.356,0.116-0.735,0.153-1.106
			c0.046-0.382,0.024-0.749-0.062-1.149c-0.121-0.333-0.312-0.579-0.568-0.744c-0.255-0.156-0.544-0.173-0.883-0.058
			c-0.229,0.086-0.431,0.206-0.605,0.387c-0.165,0.173-0.247,0.405-0.243,0.643c-0.001,1.467-0.163,2.92-0.481,4.376
			c-0.077,0.303-0.162,0.601-0.252,0.906c-0.506,1.734-1.133,3.406-1.872,4.957l-0.553,0.464c-0.4-0.68-0.689-1.37-0.9-2.068
			c-0.204-0.692-0.387-1.435-0.545-2.157c-0.2-0.513-0.338-1.063-0.477-1.61c-0.095-0.352-0.19-0.724-0.254-1.085
			c-0.162-0.975-0.434-1.843-0.822-2.694c-0.382-0.807-1.068-1.429-2.051-1.851c-0.724-0.084-1.406,0.043-2.039,0.379
			c-0.631,0.37-1.196,0.795-1.687,1.354c-0.507,0.562-0.89,1.141-1.229,1.687c-0.266,0.347-0.882,1.87-1.18,2.196
			c-0.368-0.63-0.634-2.847-0.653-3.307c-0.026-0.448-0.13-0.949-0.35-1.434c-0.149-0.167-0.326-0.304-0.501-0.417
			c-0.19-0.142-0.425-0.223-0.665-0.229c-0.353,0.146-0.649,0.37-0.888,0.683c-0.214,0.289-0.275,0.652-0.15,1.059
			c0.434,1.31,0.712,2.646,0.865,4.04c0.038,0.304,0.052,0.593,0.095,0.875c0.116,1.089,0.273,2.189,0.418,3.3
			c0.144,1.101,0.416,2.167,0.801,3.192c0.084,0.284,0.187,0.539,0.295,0.798c0.2,0.102,0.423,0.247,0.655,0.383
			c0.204,0.138,0.428,0.221,0.669,0.216c0.243,0.027,0.489-0.047,0.72-0.257c0.341-0.287,0.402-0.567,0.372-0.904
			c0.001-0.194-0.04-0.344-0.084-0.53c-0.054-0.171-0.101-0.324-0.168-0.514c-0.116-0.362-0.428-1.147-0.483-1.485
			c-0.259-1.597-0.073-2.135,0.125-3.2c0.13-0.601,0.787-1.695,1.076-2.249c0.354-0.68,1.466-2.127,1.661-2.442
			c0.238-0.352,0.587-0.604,1.022-0.755c0.267-0.188,0.524-0.216,0.802-0.063c0.253,0.159,0.434,0.358,0.593,0.636
			c0.338,0.889,0.599,1.606,0.789,2.569c0.037,0.083,0.034,0.192,0.056,0.299c0.179,0.827,0.367,1.684,0.547,2.555
			c0.179,0.964,0.469,1.89,0.809,2.796c0.66,1.424,0.623,1.292,0.66,1.424c0.083,0.257,0.934,1.417,1.342,1.557
			c0.453,0.139,0.908,0.171,1.339,0.1c0.37-0.176,0.662-0.446,0.86-0.798c0.234-0.339,0.463-0.657,0.696-0.97
			c0,0,0.289-0.518,0.4-0.775c0.116-0.302,0.248-0.583,0.407-0.871c0.287-0.512,0.545-1.048,0.813-1.575
			c0.432,0.564,0.862,1.071,1.3,1.587c0.148,0.199,0.335,0.361,0.534,0.529c0.327,0.281,0.669,0.509,1.039,0.715
			c0.581,0.203,1.105,0.278,1.604,0.226c0.474-0.049,0.971-0.238,1.458-0.587c0.189,0.219,0.031,0.938-0.098,1.348
			c-0.078,0.246-0.315,1.03-0.357,1.255c-0.184,0.787-0.569,3.078-0.565,3.536c0.004,1.355-0.465,5.886,1.352,8.278
			c0.4,0.576,1.013,1.159,1.557,1.691c0.561,0.499,1.338,0.787,2.023,1.11c0.667,0.328,1.403,0.443,2.227,0.376
			c0.711-0.104,1.34-0.379,1.863-0.819c0.514-0.399,0.972-0.936,1.33-1.535c0.357-0.59,0.64-1.186,0.835-1.821
			c0.416-1.574,0.57-3.136,0.481-4.705c-0.122-1.529-0.434-8.835-0.947-10.332c-0.03-0.078-0.04-0.151-0.076-0.228
			c-0.496-1.389-1.105-2.746-1.8-4.045c0.599-0.582,1.265-0.918,1.986-1.401c0.676-0.438,2.062-1.168,2.298-1.247
			c0.202-0.081,0.9-0.508,1.051-0.345l-0.006,0.03c-0.303,0.567-0.562,1.188-0.767,1.817c-0.217,0.66-0.034,2.703,0.532,3.548
			c0.214,0.327,0.464,0.614,0.727,0.875c0.101,0.104,0.213,0.196,0.335,0.292c0.614,0.49,1.315,0.843,2.168,1.021
			c0.956,0.235,1.904,0.214,2.821-0.049c0.959-0.396,1.733-0.987,2.263-1.757c0.028-0.029,0.021-0.064,0.042-0.095
			c0.526-0.825,0.848-1.762,1.146-2.761c0.31-1.042,0.489-1.519,0.886-2.479l0.254-0.824l1.935,2.703
			c0.52,0.581,1.092,1.132,1.687,1.66c0.438,0.405,0.908,0.729,1.413,0.99c0.146,0.092,0.314,0.177,0.482,0.234
			c0.666,0.313,1.428,0.406,2.234,0.296c0.599-0.223,1.076-0.547,1.481-0.99c0.102-0.104,0.189-0.239,0.257-0.342
			c0.382-0.608,0.749-1.207,1.049-1.858c0.293-0.666,0.293-0.666,0.406-1.054C62.255,20.623,62.016,20.251,62.004,19.906
			L62.004,19.906z"/>
	</g>
	<path fill="#63B2E7" d="M32.142,34.922c0,0-5.694,2.543-7.28,3.989c-0.276,0.25,0.671,3.804,0.671,3.804s2.416-1.886,6.655-2.081
		c1.836-1.17-1.424-2.821-1.424-2.821"/>
</g>
</svg>
