<?xml version="1.0" encoding="utf-8"?>
<!-- Generator: Adobe Illustrator 16.0.0, SVG Export Plug-In . SVG Version: 6.00 Build 0)  -->
<!DOCTYPE svg PUBLIC "-//W3C//DTD SVG 1.1//EN" "http://www.w3.org/Graphics/SVG/1.1/DTD/svg11.dtd">
<svg version="1.1" id="Layer_1" xmlns="http://www.w3.org/2000/svg" xmlns:xlink="http://www.w3.org/1999/xlink" x="0px" y="0px"
	 width="100px" height="100px" viewBox="0 0 100 100" enable-background="new 0 0 100 100" xml:space="preserve">
<g>
	<path fill="#1B5AA8" d="M47.726,59.6c-4.75-5.912,13.976-63.205,36.206-45.81c16.084,12.587-18.75,36.129-36.15,42.82L47.726,59.6z
		"/>
	
		<linearGradient id="SVGID_1_" gradientUnits="userSpaceOnUse" x1="-3.1309" y1="125.5303" x2="-50.8428" y2="136.2369" gradientTransform="matrix(0.9997 -0.0236 0.0236 0.9997 90.3552 -98.0633)">
		<stop  offset="0.2265" style="stop-color:#5FC8F2"/>
		<stop  offset="0.4069" style="stop-color:#5CC5F0"/>
		<stop  offset="0.5502" style="stop-color:#54BBE9"/>
		<stop  offset="0.6808" style="stop-color:#46AADD"/>
		<stop  offset="0.8038" style="stop-color:#3293CC"/>
		<stop  offset="0.9204" style="stop-color:#1974B7"/>
		<stop  offset="1" style="stop-color:#045BA5"/>
	</linearGradient>
	<path fill="url(#SVGID_1_)" d="M47.712,58.541c-4.519-6.089,16.771-62.514,37.14-43.964C99.957,28.332,65.891,50.72,48.251,56.734
		L47.712,58.541z"/>
	<path fill="#1B5AA8" d="M52.876,59.622c-10.508,22.76,17.539,25.199-1.174,37.92c-16.85,11.456-27.569-23.006-7.125-38.123
		L52.876,59.622z"/>
	
		<linearGradient id="SVGID_2_" gradientUnits="userSpaceOnUse" x1="-48.729" y1="195.7158" x2="-48.0236" y2="155.3016" gradientTransform="matrix(0.9997 -0.0236 0.0236 0.9997 90.3552 -98.0633)">
		<stop  offset="0.1398" style="stop-color:#5FC8F2"/>
		<stop  offset="0.2796" style="stop-color:#5BC3EF"/>
		<stop  offset="0.4443" style="stop-color:#4FB5E4"/>
		<stop  offset="0.6217" style="stop-color:#3B9DD4"/>
		<stop  offset="0.8066" style="stop-color:#1F7CBD"/>
		<stop  offset="0.9731" style="stop-color:#0058A3"/>
	</linearGradient>
	<path fill="url(#SVGID_2_)" d="M53.635,58.533c-10.507,22.76,15.98,26.429-1.174,37.92C35.471,107.837,24.5,73.976,45.335,58.33
		L53.635,58.533z"/>
	<path fill="#1B5AA8" d="M49.431,55.088c5.27,15.557,37.325,8.614,32.274,27.43c-4.977,18.533-30.83,2.099-37.251-25.786
		L49.431,55.088z"/>
	
		<linearGradient id="SVGID_3_" gradientUnits="userSpaceOnUse" x1="-14.6006" y1="183.668" x2="-49.6629" y2="153.1888" gradientTransform="matrix(0.9997 -0.0236 0.0236 0.9997 90.3552 -98.0633)">
		<stop  offset="0.2258" style="stop-color:#5FC8F2"/>
		<stop  offset="0.3365" style="stop-color:#5ABFEC"/>
		<stop  offset="0.5157" style="stop-color:#4BA7DA"/>
		<stop  offset="0.741" style="stop-color:#3480BD"/>
		<stop  offset="1" style="stop-color:#144B96"/>
	</linearGradient>
	<path fill="url(#SVGID_3_)" d="M49.037,54.715c5.735,15.386,37.766,7.814,32.95,26.692c-4.781,18.756-30.614,2.776-37.876-24.899
		L49.037,54.715z"/>
	<path fill="#1B5AA8" d="M45.885,59.363c4.617-3.379,10.897-7.58,19.53-10.92c13.777-5.332,29.604-8.95,31.503,4.866
		c2.587,18.812-38.109,14.479-53.203,4.283L45.885,59.363z"/>
	
		<linearGradient id="SVGID_4_" gradientUnits="userSpaceOnUse" x1="-7.7471" y1="165.332" x2="-40.3993" y2="138.5567" gradientTransform="matrix(0.9997 -0.0236 0.0236 0.9997 90.3552 -98.0633)">
		<stop  offset="0.2271" style="stop-color:#5FC8F2"/>
		<stop  offset="0.3415" style="stop-color:#59C1ED"/>
		<stop  offset="0.5124" style="stop-color:#48ACDE"/>
		<stop  offset="0.7185" style="stop-color:#2D8BC7"/>
		<stop  offset="0.9504" style="stop-color:#075DA6"/>
		<stop  offset="0.9924" style="stop-color:#0054A0"/>
	</linearGradient>
	<path fill="url(#SVGID_4_)" d="M43.98,61.319c7.029-7.202,49.749-30.958,53.171-8.703c2.509,16.325-27.703,15.616-54.763,6.651
		L43.98,61.319z"/>
	<path fill="#1B5AA8" d="M49.812,63.338c-27.399,3.4-8.748,28.278-29.114,21.042C4.264,78.539,6.233,53.358,44.211,56.922
		L49.812,63.338z"/>
	
		<linearGradient id="SVGID_5_" gradientUnits="userSpaceOnUse" x1="13.7412" y1="86.2744" x2="48.252" y2="67.9247" gradientTransform="matrix(0.9996 -0.0299 0.0299 0.9996 -2.0057 -7.3185)">
		<stop  offset="0.1559" style="stop-color:#5FC8F2"/>
		<stop  offset="0.2784" style="stop-color:#5BC3EF"/>
		<stop  offset="0.4245" style="stop-color:#4EB4E4"/>
		<stop  offset="0.5826" style="stop-color:#399CD4"/>
		<stop  offset="0.7481" style="stop-color:#1C7BBD"/>
		<stop  offset="0.8763" style="stop-color:#015CA7"/>
	</linearGradient>
	<path fill="url(#SVGID_5_)" d="M50.347,62.796c-27.055,2.942-9.654,28.514-28.73,21.238C5.947,78.058,7.351,53.438,44.808,56.951
		L50.347,62.796z"/>
	<path fill="#1B5AA8" d="M48.756,54.477c-7.358,8.539-58.852,4.431-43.061-27.309C16.65,5.147,32.246,48.079,45.394,50.491
		C45.605,49.14,48.756,54.477,48.756,54.477z"/>
	
		<linearGradient id="SVGID_6_" gradientUnits="userSpaceOnUse" x1="-89.5132" y1="129.2529" x2="-43.6954" y2="147.7645" gradientTransform="matrix(0.9997 -0.0236 0.0236 0.9997 90.3552 -98.0633)">
		<stop  offset="0.129" style="stop-color:#5FC8F2"/>
		<stop  offset="0.3159" style="stop-color:#5CC5F0"/>
		<stop  offset="0.4723" style="stop-color:#54BAE8"/>
		<stop  offset="0.6177" style="stop-color:#46A9DC"/>
		<stop  offset="0.7565" style="stop-color:#3390CA"/>
		<stop  offset="0.8893" style="stop-color:#1A71B3"/>
		<stop  offset="1" style="stop-color:#01519C"/>
	</linearGradient>
	<path fill="url(#SVGID_6_)" d="M48.608,54.808c-7.779,8.243-57.592,2.387-41.86-28.437C17.111,6.067,32.44,47.96,45.393,50.742
		C45.64,49.406,48.608,54.808,48.608,54.808z"/>
	<path fill="#1B5AA8" d="M47.713,55.173c-10.634-1.007-29.825-44.658-7.946-53.406c26.931-10.769,7.793,35.768,9.263,51.645
		L47.713,55.173z"/>
	
		<linearGradient id="SVGID_7_" gradientUnits="userSpaceOnUse" x1="-51.8569" y1="97.7881" x2="-46.1459" y2="152.1245" gradientTransform="matrix(0.9997 -0.0236 0.0236 0.9997 90.3552 -98.0633)">
		<stop  offset="0.1505" style="stop-color:#5FC8F2"/>
		<stop  offset="0.3564" style="stop-color:#5DC5F0"/>
		<stop  offset="0.5056" style="stop-color:#55BCE9"/>
		<stop  offset="0.6369" style="stop-color:#47ACDE"/>
		<stop  offset="0.7579" style="stop-color:#3496CF"/>
		<stop  offset="0.8707" style="stop-color:#1B79BB"/>
		<stop  offset="0.97" style="stop-color:#0059A4"/>
	</linearGradient>
	<path fill="url(#SVGID_7_)" d="M47.193,55.186C36.806,52.957,19.771,9.867,41.276,1.522c25.148-9.759,6.924,36.051,7.804,51.971
		L47.193,55.186z"/>
	<path fill="#FAC60F" d="M35.446,60.937c0,0-0.687-3.865,1.775-8.803c3.085-6.189,6.727-5.998,6.727-5.998s4.399-0.445,7.602,2.338
		c5.417,4.704,5.661,7.898,5.661,7.898s1.409,5.003-1.485,8.031c-5.052,5.293-11.856,4.143-15.339,2.209
		C36.157,64.26,35.446,60.937,35.446,60.937z"/>
	
		<radialGradient id="SVGID_8_" cx="28.8921" cy="53.9766" r="9.7988" fx="28.5154" fy="53.9827" gradientTransform="matrix(0.7546 0.7536 -0.5694 0.5687 56.458 3.4696)" gradientUnits="userSpaceOnUse">
		<stop  offset="0" style="stop-color:#FDDB00"/>
		<stop  offset="0.5742" style="stop-color:#FDD901;stop-opacity:0.4258"/>
		<stop  offset="0.8229" style="stop-color:#FCD207;stop-opacity:0.1771"/>
		<stop  offset="1" style="stop-color:#FAC60F;stop-opacity:0"/>
	</radialGradient>
	<path fill="url(#SVGID_8_)" d="M38.94,62.092c0,0-1.34-3.602-0.26-8.764c1.354-6.472,4.436-6.9,4.436-6.9s3.59-1.167,6.816,0.971
		c5.463,3.616,6.3,6.647,6.3,6.647s2.165,4.575,0.348,7.974c-3.178,5.939-9.095,5.977-12.388,4.703
		C40.191,65.171,38.94,62.092,38.94,62.092z"/>
	<linearGradient id="SVGID_9_" gradientUnits="userSpaceOnUse" x1="44.6699" y1="49.9663" x2="54.9232" y2="58.5699">
		<stop  offset="0.5524" style="stop-color:#FFFFFF"/>
		<stop  offset="1" style="stop-color:#FFFFFF;stop-opacity:0.15"/>
	</linearGradient>
	<path fill="url(#SVGID_9_)" d="M52.751,60.958c-0.212,0.034-0.412-0.131-0.565-0.543c-2.583-6.996-2.497-6.236-6.705-9.897
		c-0.82-0.713-0.592-1.147,0.176-1.268c1.546-0.239,5.283,0.803,7.065,3.434C55.056,56.126,53.766,60.801,52.751,60.958"/>
</g>
</svg>
