<?xml version="1.0" encoding="utf-8"?>
<!-- Generator: Adobe Illustrator 16.0.0, SVG Export Plug-In . SVG Version: 6.00 Build 0)  -->
<!DOCTYPE svg PUBLIC "-//W3C//DTD SVG 1.1//EN" "http://www.w3.org/Graphics/SVG/1.1/DTD/svg11.dtd">
<svg version="1.1" id="Layer_1" xmlns="http://www.w3.org/2000/svg" xmlns:xlink="http://www.w3.org/1999/xlink" x="0px" y="0px"
	 width="100px" height="100px" viewBox="0 0 100 100" enable-background="new 0 0 100 100" xml:space="preserve">
<g>
	<g>
		<defs>
			<rect id="SVGID_1_" x="-436.497" y="8.053" width="535.92" height="86.43"/>
		</defs>
		<clipPath id="SVGID_2_">
			<use xlink:href="#SVGID_1_"  overflow="visible"/>
		</clipPath>
		<path clip-path="url(#SVGID_2_)" fill="#00AE4D" d="M97.915,34.739c6.666,23.285-9.359,49.883-35.796,57.461
			C35.695,99.768,8.872,87.988,2.191,64.712c-6.666-23.276,9.362-46.36,35.792-53.933C64.415,3.208,91.251,11.479,97.915,34.739
			L97.915,34.739z"/>
		<path clip-path="url(#SVGID_2_)" fill="#FFFFFF" d="M57.551,82.184c-6.62,1.304-13.134,1.285-19.146,0.169
			c-1.935-5.692-3.952-18.52,9.624-32.176l-5.646,0.247c-9.62,9.467-10.988,22.526-9.032,30.73
			C21.143,77.396,11.817,68.641,9.414,56.425C5.565,36.881,19.35,18.64,42.085,14.16c22.745-4.464,45.216,2.531,49.061,22.08
			C94.992,55.773,80.29,77.706,57.551,82.184L57.551,82.184z M96.115,35.375c-6.42-22.395-32.247-30.351-57.674-23.067
			C13.004,19.593-2.419,41.82,3.995,64.209c6.409,22.41,32.234,33.734,57.672,26.447C87.105,83.37,102.522,57.766,96.115,35.375
			L96.115,35.375z"/>
	</g>
	<path fill="#BFE1C1" d="M50.214,48.551c-4.78,5.55-8.573,12.678-8.573,12.678s-1.329-6.765,4.807-14.793"/>
	<path fill="#52BA69" d="M47.625,52.251c-0.687,1.181-5.295,7.477-5.295,7.477s0.537-3.941,3.169-7.805"/>
	<path fill="#82C88C" d="M46.054,48.449c-5.914,5.782-7.551,12.87-7.551,12.87s2.921-4.327,12.594-10"/>
	<path fill="#BFE1C1" d="M43.586,51.825c-1.41,1.74-3.697,6.93-3.697,6.93s3.371-3.893,5.632-5.984"/>
	<path fill="#52BA69" d="M46.497,47.443c-5.917,5.775-12.179,7.159-12.179,7.159s7.548,1.374,17.219-4.296"/>
	<path fill="#82C88C" d="M44.679,51.199c-5.862,2.975-8.378,2.964-8.378,2.964s3.869-2.048,6.802-4.416"/>
	<path fill="#52BA69" d="M44.572,50.645c-4.131,4.736-8.423,6.325-8.423,6.325s3.814,0.739,7.661-3.632"/>
	<path fill="#F9E500" d="M75.137,60.501c-0.179-1.566-2.469-1.722-3.332-2.942c-0.856-1.223,4.838,1.009,4.686-0.465
		c-0.153-1.476-3.188-1.886-4.605-2.848c-1.42-0.967,2.09,0.203,2.555-1.336c0.456-1.543-2.075-1.257-3.02-2.034
		c-0.949-0.787,1.848-0.102,3.524-1.036c1.681-0.937-5.517-1.236-6.75-1.519c-1.229-0.289,1.003-0.753,2.82-2.093
		c1.818-1.346,0.228-1.266-1.393-0.865c-1.616,0.386-1.406-0.556-2.241-2.257c-0.846-1.701-1.443-1.79-2.758-2.371
		c-1.297-0.583-1.268-0.646-1.803-1.589c-0.522-0.954-1.531-2.346-2.37-2.736c-0.84-0.401-1.556-1.458-2.018-2.371
		c-0.466-0.913-0.903-1.161-2.566-2.264c0,0-0.989,0.005-1.207-0.766c-0.219-0.777-1.19-0.35-1.398,0.026
		c-0.215,0.371-2.151-0.397-2.456-1.882c-0.305-1.481-1.492-1.415-2.294-1.3c-0.352,0.053-0.794,0.66-1.244,1.375
		c-0.587-1.089-1.179-2.139-1.206-0.928c-0.018,0.871,0.321,1.489,0.583,1.935c-0.347,0.571-0.674,1.081-0.947,1.337
		c-0.218-0.336-0.458-0.715-0.681-1.036c-0.537-0.753,0.53-2.44-0.114-3.1c-0.661-0.667-3.559-1.07-2.461-0.43
		c0.589,0.337,0.771,1.896,0.853,3.536c-0.489-0.585-1.091-1.33-1.917-2.376c-3.8-4.85-8.981-1.477-6.971-2.142
		c2.012-0.657,6.617,3.658,7.278,5.671c0.665,2.005-1.188-0.512-3.341-2.227c-1.698-1.341-5.401-1.87-5.759-1.447l-0.098-0.107
		c-1.563-0.691-3.518-3.065-4.853-2.414c-1.332,0.651,3.567,4.31,2.08,4.224c-1.497-0.091-2.824-1.957-4.258-1.275
		c-1.438,0.677-3.638-0.044-3.74,0.298c-0.108,0.356,0.84,0.722,1.87,1.212c1.042,0.481,2.245,1.055,0.509,0.673
		c-1.738-0.385-3.073,0.416-3.165,1.031c-0.084,0.603,4.266-1.276,7.706,1.489c3.436,2.783-4.921-1.832-7.527-0.345
		c-2.601,1.504,1.283,0.233,5,2.347c3.712,2.118-6.268-0.609-7.07,2.035c-0.804,2.659-0.831,0.4,0.982,1.233
		c1.824,0.839-1.955,0.842-0.577,1.429c1.378,0.601,8.626-1.704,12.298-0.257c3.671,1.447-5.7,0.35-6.243,1.347
		c-0.548,1.006-2.189,2.212,0.074,2.397c2.246,0.176,2.141-0.334,5.726-0.075c3.6,0.27-0.244,0.789-0.198,1.464
		c0.037,0.669,1.466,0.205,4.062-0.394c0.384-0.088,0.659-0.114,0.882-0.12c-1.607,1.247-4.132,2.385-4.751,3.174
		c-0.438,0.545,4.033,0.611,4.04-0.485c0-0.502,0.491-0.566,1.086-0.449c-0.033,0.199-0.017,0.395,0.076,0.58
		c0.71,1.368-2.421,2.304-2.444,3.512c-0.007,1.205,5.076-1.696,6.745-1.922c1.667-0.221-6.636,3.572-3.869,3.706
		c1.838,0.091,4.605-1.169,6.669-1.898c0.434,0.767,0.606,1.726-0.626,2.453c-1.833,1.081-0.387,0.486-0.08,2.663
		c0.472,3.307,1.916-1.771,3.039-1.148c-0.593,1.802-1.686,4.712-1.097,4.813c0.465,0.087,1.143-1.872,1.626-3.917
		c0.353,1.407-0.022,3.917,1.225,5.727c1.572,2.272,1.528-4.448,2.218-2.92c0.686,1.537,0.9,7.384,1.919,6.728
		c0.545-0.344,0.411-3.719,0.401-6.81c0.909,2.587,1.859,5.345,2.615,6.064c1.69,1.603-0.909-5.149-0.148-8.421
		c0.01-0.036,0.02-0.08,0.033-0.116c0.209,1.083,0.306,2.244,0.321,3.011c0.029,1.814,1.165-0.329,2.018,2.199
		c0.869,2.537,2.174,9.495,2.762,9.172c0.586-0.314-2.483-9.505-0.364-6.591c2.107,2.918,1.926,6.001,3.266,7.821
		c1.342,1.823,1.511-0.213,2.072-1.197c0.475-0.831-5.498-12.279-5.542-14.52c1.777,2.354,2.728,5.93,4.071,7.519
		c0.937,1.11,0.016-1.194-0.835-4.182c2.58,4.734,5.186,12.193,6.11,12.837c1.234,0.868-0.892-4.344,0.771-3.236
		c1.669,1.097-0.125,4.254,1.706,2.185c1.828-2.067-5.04-9.884-1.286-7.847c3.753,2.047,4.027,6.773,3.925,3.771
		c-0.111-3.001-7.608-6.514-3.445-5.056c4.171,1.454,4.047,4.989,4.514,4.6c0.466-0.392,0.456-1.949-0.784-3.225
		c-1.243-1.277-0.284-0.814,0.676-0.189c0.956,0.615,1.932,1.494,2.169,1.225C77.084,63.566,75.312,62.077,75.137,60.501
		L75.137,60.501z"/>
</g>
</svg>
