<?xml version="1.0" encoding="utf-8"?>
<!-- Generator: Adobe Illustrator 16.0.0, SVG Export Plug-In . SVG Version: 6.00 Build 0)  -->
<!DOCTYPE svg PUBLIC "-//W3C//DTD SVG 1.1//EN" "http://www.w3.org/Graphics/SVG/1.1/DTD/svg11.dtd">
<svg version="1.1" id="Layer_1" xmlns="http://www.w3.org/2000/svg" xmlns:xlink="http://www.w3.org/1999/xlink" x="0px" y="0px"
	 width="100px" height="100px" viewBox="0 0 100 100" enable-background="new 0 0 100 100" xml:space="preserve">
<g>
	<g>
		<defs>
			<rect id="SVGID_1_" x="-0.079" y="0" width="100.158" height="100"/>
		</defs>
		<clipPath id="SVGID_2_">
			<use xlink:href="#SVGID_1_"  overflow="visible"/>
		</clipPath>
		<path clip-path="url(#SVGID_2_)" fill-rule="evenodd" clip-rule="evenodd" fill="#ED1C24" d="M99.387,54.986
			c0-0.068-0.014-0.139-0.044-0.212c-0.044-0.108-0.285-0.407-0.479-0.646c-0.264-0.327-0.428-0.533-0.451-0.614
			c-0.055-0.083-0.074-0.182-0.074-0.277c0-0.132,0.037-0.258,0.059-0.325c0.042-0.12,0.22-0.319,0.509-0.634
			c0.187-0.205,0.443-0.485,0.48-0.577c0.026-0.065,0.036-0.15,0.036-0.239c0-0.164-0.036-0.338-0.073-0.411
			c-0.113-0.223-0.338-0.369-0.577-0.524c-0.301-0.195-0.626-0.439-0.752-0.73c-0.075-0.121-0.085-0.257-0.085-0.367
			c0-0.381,0.758-0.797,1.254-1.182s0.746-0.785,0.836-0.953c0.044-0.099,0.062-0.279,0.052-0.374
			c-0.008-0.06-0.005-0.115-0.016-0.156c-0.116-0.422-0.43-0.667-0.707-0.883l-0.069-0.054l-0.823-0.626l-0.197-0.135
			c-0.349-0.234-0.745-0.5-0.961-1.025c-0.076-0.185-0.106-0.359-0.106-0.523c0-0.468,0.254-0.855,0.454-1.159l0.22-0.376
			c0.036-0.085,0.055-0.174,0.055-0.262c0-0.096-0.022-0.191-0.062-0.281c-0.07-0.153-0.194-0.276-0.327-0.322
			c-0.106-0.04-0.386-0.087-0.67-0.05c-0.231,0.031-0.932,0.113-1.672,0.097c-1.166-0.024-3.23-0.289-4.533-0.731l-0.071-0.024
			c-0.499-0.158-0.902-0.328-1.365-0.566c-0.102-0.052-0.381-0.238-0.42-0.247c-0.044,0-0.444,0.227-0.444,0.227l-0.368,0.154
			l-0.819,0.351c-0.547,0.249-1.07,0.415-1.983,0.706c0,0-1.324,0.423-1.563,0.398l-0.032-0.015
			c-0.075-0.056-0.277-0.812-0.285-0.958c-0.003-0.051,0.046-0.108,0.125-0.147l0.471-0.14c0.637-0.171,1.589-0.433,2.244-0.69
			c3.104-1.224,5.162-2.377,7.33-4.797c0.641-0.714,1.449-1.962,1.565-2.208c0.117-0.247,0.143-0.39,0.143-0.39
			c0.095-0.405-0.089-0.743-0.192-0.891c-0.14-0.205-0.315-0.264-0.524-0.352c0,0-0.316-0.095-0.469-0.279
			c-0.126-0.153-0.195-0.543-0.247-0.838c-0.094-0.532,0.098-2.299,0.207-2.724c0.12-0.459,0.253-1.111,0.02-1.455
			c-0.293-0.433-1.129-0.649-1.626-0.695l-0.246-0.025c-0.303-0.041-0.965-0.189-1.207-0.342c-0.128-0.08-0.357-0.251-0.466-0.495
			c-0.187-0.424-0.028-0.901,0.19-1.559l0.044-0.133c0.086-0.264,0.185-0.562,0.038-0.866c-0.068-0.144-0.36-0.189-0.644-0.233
			l-0.531-0.113c-0.551-0.188-1.209-0.583-1.401-1.13c-0.147-0.419-0.16-0.78-0.044-1.168l0.078-0.255
			c0.295-0.964,0.909-2.969,0.345-3.312c-0.133-0.083-0.354-0.22-0.784-0.24l-0.833-0.002c0,0-0.182,0.012-0.225,0.012
			c-1.177,0.003-2.51,0.007-2.998-0.704c-0.326-0.474-0.412-1.014-0.446-1.732l0.021-0.561c0.037-0.485,0.077-1.036-0.155-1.377
			c-0.187-0.276-0.962-0.239-1.709-0.203c-0.712,0.035-1.388,0.071-1.864-0.132c-1.017-0.433-1.14-1.335-1.237-2.061
			c-0.058-0.417-0.106-0.778-0.31-0.927c-0.178-0.13-0.484-0.031-0.839,0.084c-0.567,0.184-1.272,0.412-1.85-0.224
			c-0.391-0.433-0.578-1.12-0.776-1.848c-0.255-0.941-0.52-1.915-1.247-2.147c-0.417-0.133-0.878,0.089-1.137,0.213
			c-0.531,0.256-0.908,0.469-1.39,0.786l-0.329,0.241l-0.448,0.32l-0.157,0.106c-0.298,0.212-0.748,0.532-1.293,0.315
			c-0.536-0.214-0.669-0.864-0.778-1.386l-0.072-0.322c-0.062-0.239-0.165-0.333-0.303-0.438c-0.28-0.215-1.061,0.018-1.687,0.205
			l-0.213,0.063c-0.31,0.09-0.927,0.178-1.279-0.062C63.87,2.998,63.744,2.69,63.61,2.364L63.516,2.14
			c-0.423-0.943-1.278-2.289-1.902-2.126c-0.221,0.058-0.686,0.426-0.992,0.788L60.26,1.269c-0.418,0.56-0.939,1.256-1.331,1.425
			c-0.251,0.108-0.483,0.158-0.805,0.043c-0.214-0.077-0.307-0.265-0.396-0.447l-0.093-0.175l-0.279-0.548
			c-0.102-0.22-0.188-0.41-0.302-0.498c-0.374-0.287-0.733-0.091-0.834-0.025c-0.169,0.112-0.257,0.393-0.369,0.75l-0.094,0.293
			l-0.192,0.868c-0.217,0.712-0.441,1.688-0.734,2.315c-0.712,1.531-1.185,2.495-2.342,4.043c-0.359,0.483-1.278,1.334-1.402,1.463
			c0,0-0.275,0.313-0.326,0.37c0.002,0.023,0.005,0.052,0.005,0.052s0.064,0.714,0.065,0.736c0.007,0.154,0.018,0.356,0.018,0.614
			c0,0.298-0.014,0.669-0.064,1.125c-0.092,0.86-0.305,2.214-0.36,2.3l-0.027,0.039l-0.016,0.014
			c-0.042,0.035-0.074,0.08-0.555-0.007c-0.441-0.08-0.469-0.131-0.496-0.181l-0.032-0.038l0.048-0.327
			c0.068-0.399,0.212-1.23,0.249-2.042c0.072-1.626-0.114-3.194-0.644-5.413c-0.474-1.986-1.351-4.023-2.758-6.112
			c-0.286-0.424-0.588-0.79-0.9-1.086l-0.336-0.237c-0.145-0.075-0.548-0.146-0.775-0.038C43.912,0.674,43.68,1.08,43.51,1.376
			l-0.15,0.252L43.32,1.69c0,0-0.524,0.734-0.533,0.744c-0.087,0.103-0.271,0.317-0.633,0.39c-1.149,0.229-1.814-0.49-2.497-1.042
			L39.17,1.242l-0.197-0.157c-0.326-0.267-0.732-0.6-1.346-0.54c-0.334,0.033-0.801,0.802-1.214,1.479
			c-0.402,0.66-0.817,1.343-1.266,1.711c-0.736,0.604-2.454,0.351-3.249,0.118l-0.234-0.081c-0.292-0.107-0.622-0.227-0.935-0.104
			c-0.499,0.195-0.57,0.547-0.689,1.129l-0.066,0.317c-0.146,0.646-0.487,1.066-0.668,1.205c-0.184,0.14-0.593,0.243-0.821,0.24
			c-0.829-0.012-1.392-0.093-1.922-0.369l-0.37-0.184l-0.997-0.442c-0.404-0.175-1.167-0.41-1.495-0.292
			c-1.06,0.381-1.21,1.754-1.356,3.081l-0.118,0.945c-0.068,0.431-0.174,0.733-0.347,0.981c-0.576,0.829-1.818,0.375-2.589,0.093
			c-0.14-0.051-0.612-0.203-0.854-0.017c-0.197,0.138-0.241,0.506-0.282,0.862l-0.117,0.635c-0.071,0.207-0.289,0.613-0.47,0.776
			l-0.295,0.16c-0.321,0.062-1.638,0.217-2.441,0.124l-1.061-0.105c-1.461-0.1-1.729,0.773-1.8,1.545
			c-0.007,0.085-0.01,0.166-0.01,0.244c0,0.239,0.032,0.45,0.071,0.702l0.173,0.8c0.157,0.652,0.308,1.527,0.308,2.257
			c0,0.497-0.088,0.964-0.336,1.335c-0.358,0.533-1.002,0.616-1.729,0.709c-0.242,0.031-0.421,0.059-0.528,0.132
			c-0.297,0.203-0.349,0.717-0.405,1.26c-0.063,0.636-0.13,1.294-0.604,1.629c-0.475,0.335-1.16,0.408-1.823,0.479
			c-0.398,0.042-0.809,0.086-1.17,0.185c-0.384,0.105-0.709,0.323-0.764,0.427c-0.051,0.096-0.099,0.273-0.099,0.46
			c0,0.089,0.011,0.179,0.037,0.265l0.156,0.41l0.035,0.084l0.438,0.869c0.182,0.324,0.589,0.758,0.744,1.204l0.03,0.086
			c0.075,0.204,0.185,0.505,0.185,0.83c0,0.129-0.017,0.181-0.061,0.312c-0.241,0.723-1.113,1.186-1.871,1.324
			c-1.186,0.215-1.211,0.529-1.229,0.752c-0.001,0.017-0.001,0.032-0.001,0.047c0,0.23,0.159,0.324,0.495,0.501l0.117,0.062
			l0.684,0.409l0.502,0.327l1.006,0.68c1.278,0.943,2.269,1.974,2.56,2.333l0.149,0.182c0.322,0.391,0.808,0.981,1.04,1.381
			c0.487,0.842,1.007,1.555,1.123,1.771c0.037,0.044,0.069,0.064,0.069,0.064s1.694,0.447,2.427,0.724
			c0.701,0.265,2.179,0.949,2.296,1.017l0.066,0.038c0,0,0.03,0.058,0.027,0.074c-0.036,0.186-0.306,0.918-0.396,0.965l-0.052,0.003
			l-0.195-0.077c0,0-1.237-0.632-1.975-0.869c-1.148-0.369-2.082-0.647-3.682-0.785l-0.422-0.041
			c-1.921-0.113-3.398-0.32-5.985,0.34c-0.961,0.245-2.441,0.801-2.72,1.576c-0.218,0.605,0.221,0.925,0.704,1.171l0.281,0.133
			c0.574,0.264,1.442,0.743,1.59,1.345c0.166,0.667-0.205,1.221-0.405,1.522c-0.569,0.854-1.279,1.659-1.965,2.149l-0.483,0.351
			c-0.143,0.107-0.428,0.391-0.446,0.562c-0.052,0.491,0.384,0.744,0.888,1.036l0.422,0.257c0.185,0.122,0.7,0.711,0.789,0.9
			c0.494,1.05-0.074,2.089-0.259,2.345l-0.12,0.154c-0.233,0.291-0.585,0.73-0.475,1.179c0.118,0.478,0.506,0.842,1.067,0.999
			l0.289,0.066l0.546,0.171c0.261,0.142,0.479,0.403,0.598,0.715c0.118,0.309,0.087,0.749,0.004,1.049
			c-0.11,0.396-0.663,1.062-1.15,1.648l-0.527,0.664c-0.301,0.444-1.274,1.896-1.019,2.473c0.094,0.212,0.264,0.482,0.75,0.699
			c0.831,0.372,1.431,0.64,1.943,0.814l0.365,0.112c0.591,0.177,1.4,0.416,1.694,0.841c0.622,0.897,0.153,1.593-0.336,2.174
			c-0.215,0.257-0.438,0.583-0.238,0.838c0.176,0.259,0.526,0.347,0.896,0.441c0.511,0.13,1.091,0.276,1.259,0.927
			c0.197,0.759-0.051,1.254-0.232,1.615l-0.11,0.236l-0.325,0.61l-0.261,0.651c-0.065,0.172-0.104,0.916,0.125,1.257
			c0.386,0.573,1.4,0.833,3.132,0.854l0.568-0.01c0.701-0.021,1.424-0.042,1.789,0.189c0,0,0.222,0.139,0.288,0.312
			c0.097,0.257-0.041,0.823-0.089,1.006c-0.048,0.183-0.089,0.486-0.062,0.703c0.028,0.216,0.133,0.282,0.22,0.342
			c0.154,0.105,0.353,0.121,0.41,0.123l0.225-0.015c0.42-0.038,1.023-0.138,1.214-0.064c0.639,0.249,0.264,1.086,0.068,1.552
			l-0.247,0.571c-0.251,0.572-0.488,1.112-0.692,1.86c-0.068,0.249-0.138,0.748-0.089,0.935c0.05,0.192,0.192,0.336,0.303,0.422
			c0.109,0.086,0.586,0.182,0.922,0.081l0.187-0.069c0.354-0.139,0.946-0.371,1.367-0.117c0.573,0.346,0.368,1.125,0.295,1.848
			c-0.034,0.348-0.108,0.438-0.058,0.689c0.018,0.097,0.058,0.335,0.191,0.383c0.646,0.234,1.589-0.948,2.159-1.413
			c1.398-1.135,2.918-1.689,3.936-2.113c0.942-0.392,1.645-0.534,2.099-0.663l1.163-0.214c0,0,0.012-0.002,0.024-0.004
			c0.04-0.057,0.716-0.922,0.716-0.922c0.613-0.799,1.791-1.983,2.278-2.335l0.085-0.041l0.057,0.004
			c0.179,0.021,0.564,0.61,0.595,0.697c0,0-0.008,0.083,0.001,0.044c-0.032,0.081-0.108,0.158-0.374,0.406l-0.25,0.257
			c-0.351,0.369-0.954,1.003-1.314,1.508c-0.744,1.042-1.198,1.693-1.63,2.854c-0.188,0.504-0.347,0.909-0.649,2.121
			c-0.352,1.407-0.395,2.587-0.435,3.251c-0.032,0.518-0.008,1.588,0.06,2.449c0.036,0.452,0.247,1.219,0.721,1.36
			c0.301,0.091,0.757,0.018,0.93-0.079c0.601-0.333,1.416-0.808,1.632-0.904c0.259-0.116,0.531-0.386,1.128-0.043
			c0.272,0.156,0.542,0.783,0.571,1.627c0.034,0.999-0.054,2.386,0.5,2.79c0.278,0.202,0.667,0.313,1.044,0.124L32,95.979
			c0.588-0.393,1.013-0.687,2.024-0.501c0.557,0.103,0.886,0.581,1.203,1.121c0.219,0.373,0.446,0.758,0.722,0.924
			c0.096,0.057,0.307,0.034,0.426-0.024c0.077-0.038,0.417-0.307,0.622-0.498l0.336-0.373c0.283-0.339,0.585-0.652,1.032-0.776
			c0.646-0.18,0.97-0.193,1.492,0.205c0.227,0.174,0.455,0.455,0.65,0.797c0.56,0.983,0.704,1.769,1.275,2.277l0.083,0.075
			c0.254,0.234,0.602,0.556,1.098,0.423c0.646-0.173,1.089-0.656,1.557-1.169c0.502-0.549,1.345-1.057,2.144-1.23
			c1.147-0.25,2.042,1.355,2.051,1.372c0.248,0.448,1.111,1.417,1.45,1.399c0.505-0.028,0.966-0.563,1.455-1.129
			c0.401-0.466,0.817-0.947,1.302-1.188c0.826-0.412,1.341-0.002,2.014,0.382c0.371,0.212,0.823,0.506,1.013,0.495
			c0.207-0.013,0.388-0.141,0.504-0.301c0.147-0.206,0.306-0.447,0.442-0.666c0.252-0.4,0.562-0.872,1.158-1.033
			c0.438-0.117,0.639,0.044,0.875,0.142l0.374,0.203c0.432,0.255,2.13,1.53,2.756,1.719c0.422,0.127,0.685,0.079,0.877-0.104
			c0.408-0.39,0.63-1.302,0.882-1.93c0.321-0.806,0.474-1.437,1.242-1.724c0.583-0.219,1.256,0.321,1.456,0.452
			c0.384,0.25,0.739,0.515,1.045,0.487c0.293-0.026,0.498-0.239,0.542-0.379c0.049-0.15,0.119-0.552,0.128-0.786
			c0.016-0.407,0.03-0.832,0.223-1.02c0.419-0.409,1.114-0.045,1.763,0.277c0.688,0.343,1.36,0.562,1.755,0.452
			c0.102-0.029,0.478-0.192,0.489-0.693c0.021-0.901,0.035-2.09,0.356-2.29c0.31-0.192,0.517-0.017,0.985,0.027
			c0.387,0.037,0.534,0.008,0.616-0.068c0.079-0.075,0.171-0.261,0.173-0.388c0.001-0.03-0.003-0.105-0.01-0.139
			c-0.073-0.342-0.064-0.498-0.393-1.002c-0.362-0.558-0.97-1.471-1.22-1.954c-0.378-0.729-0.651-1.649-0.855-2.631
			c-0.145-0.697-0.222-2-0.203-2.336s0.032-0.555,0.081-0.765c0.057-0.237,0.087-0.324,0.112-0.394
			c-0.013-0.014-0.027-0.029-0.027-0.029c-0.589-0.588-1.047-1.125-1.289-1.386c-0.196-0.21-0.881-1.092-0.985-1.236
			c-0.119-0.166-0.296-0.411-0.336-0.496l-0.002-0.034c-0.028-0.028,0.077-0.159,0.34-0.396c0.271-0.245,0.453-0.354,0.491-0.317
			l0.03,0.012c0.044,0.05,0.237,0.298,0.424,0.566c0.059,0.085,0.172,0.213,0.478,0.606c0.286,0.368,0.678,0.808,1.158,1.272
			c0.545,0.528,2.16,2.017,4.658,3.119c1.521,0.671,2.752,1.018,3.979,1.3c0.806,0.187,1.451,0.2,1.71,0.135
			c0.342-0.087,0.355-0.505,0.339-1.182c-0.016-0.618-0.031-1.257,0.42-1.572c0.396-0.276,1.578-0.58,2.242-0.479
			c0.312,0.048,1.082,0.114,1.2,0.059c0.17-0.096,0.233-0.26,0.233-0.479s-0.063-0.494-0.146-0.811
			c-0.07-0.275-0.135-0.525-0.135-0.728c0-0.108,0.019-0.202,0.065-0.278c0.146-0.401,0.574-0.491,0.951-0.571l0.164-0.036
			l0.398-0.083c0.608-0.121,1.012-0.346,1.278-0.726c0.108-0.155,0.146-0.393,0.146-0.664c0-0.303-0.046-0.648-0.089-0.971
			s-0.085-0.636-0.085-0.908c0-0.364,0.056-0.675,0.302-0.812c0.732-0.405,1.546-0.527,2.264-0.636
			c0.852-0.128,1.588-0.238,1.961-0.768c0.121-0.171,0.186-0.457,0.186-0.749c0-0.186-0.026-0.373-0.08-0.534l-0.36-0.818
			l-0.221-0.462c-0.199-0.457-0.41-0.878-0.556-1.376l-0.03-0.103c-0.077-0.262-0.172-0.581-0.172-0.887
			c0-0.194-0.023-0.382,0.083-0.547c0.426-0.66,1.239-0.718,1.832-0.759c0.354-0.024,0.686-0.048,0.744-0.185
			c0.046-0.107,0.066-0.247,0.066-0.408c0-0.438-0.143-1.027-0.264-1.527l-0.016-0.066c-0.029-0.123-0.043-0.258-0.043-0.396
			c0-0.38,0.039-0.875,0.169-1.059c0.328-0.465,1.214-0.927,1.8-1.233l0.18-0.094l0.245-0.123c0.37-0.179,0.688-0.332,0.793-0.692
			c0.019-0.065,0.028-0.136,0.028-0.21c0-0.512-0.423-1.189-0.714-1.657l-0.287-0.479c-0.103-0.162-0.247-0.39-0.247-0.67
			c0-0.069,0.009-0.142,0.03-0.218c0.155-0.576,0.47-0.989,0.812-1.389l0.32-0.386l0.344-0.381
			C99.149,55.513,99.387,55.271,99.387,54.986L99.387,54.986z"/>
	</g>
	<polygon fill="#FFFFFF" points="42.626,74.952 57.656,74.952 74.319,30.077 60.246,30.077 50.273,62.373 40.174,30.077 
		25.68,30.077 42.626,74.952 	"/>
</g>
</svg>
